<svg width="250" height="250" viewBox="0 0 250 250" fill="none" xmlns="http://www.w3.org/2000/svg">
<path d="M83.6667 250C106.667 250 125.333 231.333 125.333 208.333V166.667H83.6667C60.6667 166.667 42 185.333 42 208.333C42 231.333 60.6667 250 83.6667 250Z" fill="#00D080"/>
<path d="M42 125C42 102 60.6667 83.3333 83.6667 83.3333H125.333V166.667H83.6667C60.6667 166.667 42 148 42 125Z" fill="#A351FF"/>
<path d="M42 41.6667C42 18.6667 60.6667 0 83.6667 0H125.333V83.3333H83.6667C60.6667 83.3333 42 64.6667 42 41.6667Z" fill="#F44D03"/>
<path d="M125.333 0H167C190 0 208.667 18.6667 208.667 41.6667C208.667 64.6667 190 83.3333 167 83.3333H125.333V0Z" fill="#FF715D"/>
<path d="M208.667 125C208.667 148 190 166.667 167 166.667C144 166.667 125.333 148 125.333 125C125.333 102 144 83.3333 167 83.3333C190 83.3333 208.667 102 208.667 125Z" fill="#00BBFF"/>
</svg>
