<svg width="640" height="160" viewBox="0 0 640 160" fill="none" xmlns="http://www.w3.org/2000/svg">
<g clip-path="url(#clip0)">
<path d="M170.867 136L163.414 111.531H125.938L118.484 136H95L131.281 32.7812H157.93L194.352 136H170.867ZM158.211 93.25C151.32 71.0781 147.43 58.5391 146.539 55.6328C145.695 52.7266 145.086 50.4297 144.711 48.7422C143.164 54.7422 138.734 69.5781 131.422 93.25H158.211ZM227.117 136H205.672V26.5938H227.117V136ZM248.773 37.0703C248.773 30.0859 252.664 26.5938 260.445 26.5938C268.227 26.5938 272.117 30.0859 272.117 37.0703C272.117 40.3984 271.133 43 269.164 44.875C267.242 46.7031 264.336 47.6172 260.445 47.6172C252.664 47.6172 248.773 44.1016 248.773 37.0703ZM271.133 136H249.688V57.3906H271.133V136ZM337.438 55.9141C346.719 55.9141 353.984 59.5469 359.234 66.8125C364.484 74.0312 367.109 83.9453 367.109 96.5547C367.109 109.539 364.391 119.594 358.953 126.719C353.562 133.844 346.203 137.406 336.875 137.406C327.641 137.406 320.398 134.055 315.148 127.352H313.672L310.086 136H293.703V26.5938H315.148V52.0469C315.148 55.2812 314.867 60.4609 314.305 67.5859H315.148C320.164 59.8047 327.594 55.9141 337.438 55.9141ZM330.547 73.0703C325.25 73.0703 321.383 74.7109 318.945 77.9922C316.508 81.2266 315.242 86.5938 315.148 94.0938V96.4141C315.148 104.852 316.391 110.898 318.875 114.555C321.406 118.211 325.391 120.039 330.828 120.039C335.234 120.039 338.727 118.023 341.305 113.992C343.93 109.914 345.242 104.008 345.242 96.2734C345.242 88.5391 343.93 82.75 341.305 78.9062C338.68 75.0156 335.094 73.0703 330.547 73.0703ZM417.383 71.1719C412.836 71.1719 409.273 72.625 406.695 75.5312C404.117 78.3906 402.641 82.4688 402.266 87.7656H432.359C432.266 82.4688 430.883 78.3906 428.211 75.5312C425.539 72.625 421.93 71.1719 417.383 71.1719ZM420.406 137.406C407.75 137.406 397.859 133.914 390.734 126.93C383.609 119.945 380.047 110.055 380.047 97.2578C380.047 84.0859 383.328 73.9141 389.891 66.7422C396.5 59.5234 405.617 55.9141 417.242 55.9141C428.352 55.9141 437 59.0781 443.188 65.4062C449.375 71.7344 452.469 80.4766 452.469 91.6328V102.039H401.773C402.008 108.133 403.812 112.891 407.188 116.312C410.562 119.734 415.297 121.445 421.391 121.445C426.125 121.445 430.602 120.953 434.82 119.969C439.039 118.984 443.445 117.414 448.039 115.258V131.852C444.289 133.727 440.281 135.109 436.016 136C431.75 136.938 426.547 137.406 420.406 137.406ZM490.508 93.25L499.859 81.2969L521.867 57.3906H546.055L514.836 91.4922L547.953 136H523.203L500.562 104.148L491.352 111.531V136H469.906V26.5938H491.352V75.3906L490.227 93.25H490.508Z" fill="#DE0607"/>
<g clip-path="url(#clip1)">
<path d="M165.867 133L158.414 108.531H120.938L113.484 133H90L126.281 29.7812H152.93L189.352 133H165.867ZM153.211 90.25C146.32 68.0781 142.43 55.5391 141.539 52.6328C140.695 49.7266 140.086 47.4297 139.711 45.7422C138.164 51.7422 133.734 66.5781 126.422 90.25H153.211ZM222.117 133H200.672V23.5938H222.117V133ZM243.773 34.0703C243.773 27.0859 247.664 23.5938 255.445 23.5938C263.227 23.5938 267.117 27.0859 267.117 34.0703C267.117 37.3984 266.133 40 264.164 41.875C262.242 43.7031 259.336 44.6172 255.445 44.6172C247.664 44.6172 243.773 41.1016 243.773 34.0703ZM266.133 133H244.688V54.3906H266.133V133ZM332.438 52.9141C341.719 52.9141 348.984 56.5469 354.234 63.8125C359.484 71.0312 362.109 80.9453 362.109 93.5547C362.109 106.539 359.391 116.594 353.953 123.719C348.562 130.844 341.203 134.406 331.875 134.406C322.641 134.406 315.398 131.055 310.148 124.352H308.672L305.086 133H288.703V23.5938H310.148V49.0469C310.148 52.2812 309.867 57.4609 309.305 64.5859H310.148C315.164 56.8047 322.594 52.9141 332.438 52.9141ZM325.547 70.0703C320.25 70.0703 316.383 71.7109 313.945 74.9922C311.508 78.2266 310.242 83.5938 310.148 91.0938V93.4141C310.148 101.852 311.391 107.898 313.875 111.555C316.406 115.211 320.391 117.039 325.828 117.039C330.234 117.039 333.727 115.023 336.305 110.992C338.93 106.914 340.242 101.008 340.242 93.2734C340.242 85.5391 338.93 79.75 336.305 75.9062C333.68 72.0156 330.094 70.0703 325.547 70.0703ZM412.383 68.1719C407.836 68.1719 404.273 69.625 401.695 72.5312C399.117 75.3906 397.641 79.4688 397.266 84.7656H427.359C427.266 79.4688 425.883 75.3906 423.211 72.5312C420.539 69.625 416.93 68.1719 412.383 68.1719ZM415.406 134.406C402.75 134.406 392.859 130.914 385.734 123.93C378.609 116.945 375.047 107.055 375.047 94.2578C375.047 81.0859 378.328 70.9141 384.891 63.7422C391.5 56.5234 400.617 52.9141 412.242 52.9141C423.352 52.9141 432 56.0781 438.188 62.4062C444.375 68.7344 447.469 77.4766 447.469 88.6328V99.0391H396.773C397.008 105.133 398.812 109.891 402.188 113.312C405.562 116.734 410.297 118.445 416.391 118.445C421.125 118.445 425.602 117.953 429.82 116.969C434.039 115.984 438.445 114.414 443.039 112.258V128.852C439.289 130.727 435.281 132.109 431.016 133C426.75 133.938 421.547 134.406 415.406 134.406ZM485.508 90.25L494.859 78.2969L516.867 54.3906H541.055L509.836 88.4922L542.953 133H518.203L495.562 101.148L486.352 108.531V133H464.906V23.5938H486.352V72.3906L485.227 90.25H485.508Z" fill="#A706B5"/>
</g>
<g clip-path="url(#clip2)">
<path d="M165.867 137L158.414 112.531H120.938L113.484 137H90L126.281 33.7812H152.93L189.352 137H165.867ZM153.211 94.25C146.32 72.0781 142.43 59.5391 141.539 56.6328C140.695 53.7266 140.086 51.4297 139.711 49.7422C138.164 55.7422 133.734 70.5781 126.422 94.25H153.211ZM222.117 137H200.672V27.5938H222.117V137ZM243.773 38.0703C243.773 31.0859 247.664 27.5938 255.445 27.5938C263.227 27.5938 267.117 31.0859 267.117 38.0703C267.117 41.3984 266.133 44 264.164 45.875C262.242 47.7031 259.336 48.6172 255.445 48.6172C247.664 48.6172 243.773 45.1016 243.773 38.0703ZM266.133 137H244.688V58.3906H266.133V137ZM332.438 56.9141C341.719 56.9141 348.984 60.5469 354.234 67.8125C359.484 75.0312 362.109 84.9453 362.109 97.5547C362.109 110.539 359.391 120.594 353.953 127.719C348.562 134.844 341.203 138.406 331.875 138.406C322.641 138.406 315.398 135.055 310.148 128.352H308.672L305.086 137H288.703V27.5938H310.148V53.0469C310.148 56.2812 309.867 61.4609 309.305 68.5859H310.148C315.164 60.8047 322.594 56.9141 332.438 56.9141ZM325.547 74.0703C320.25 74.0703 316.383 75.7109 313.945 78.9922C311.508 82.2266 310.242 87.5938 310.148 95.0938V97.4141C310.148 105.852 311.391 111.898 313.875 115.555C316.406 119.211 320.391 121.039 325.828 121.039C330.234 121.039 333.727 119.023 336.305 114.992C338.93 110.914 340.242 105.008 340.242 97.2734C340.242 89.5391 338.93 83.75 336.305 79.9062C333.68 76.0156 330.094 74.0703 325.547 74.0703ZM412.383 72.1719C407.836 72.1719 404.273 73.625 401.695 76.5312C399.117 79.3906 397.641 83.4688 397.266 88.7656H427.359C427.266 83.4688 425.883 79.3906 423.211 76.5312C420.539 73.625 416.93 72.1719 412.383 72.1719ZM415.406 138.406C402.75 138.406 392.859 134.914 385.734 127.93C378.609 120.945 375.047 111.055 375.047 98.2578C375.047 85.0859 378.328 74.9141 384.891 67.7422C391.5 60.5234 400.617 56.9141 412.242 56.9141C423.352 56.9141 432 60.0781 438.188 66.4062C444.375 72.7344 447.469 81.4766 447.469 92.6328V103.039H396.773C397.008 109.133 398.812 113.891 402.188 117.312C405.562 120.734 410.297 122.445 416.391 122.445C421.125 122.445 425.602 121.953 429.82 120.969C434.039 119.984 438.445 118.414 443.039 116.258V132.852C439.289 134.727 435.281 136.109 431.016 137C426.75 137.938 421.547 138.406 415.406 138.406ZM485.508 94.25L494.859 82.2969L516.867 58.3906H541.055L509.836 92.4922L542.953 137H518.203L495.562 105.148L486.352 112.531V137H464.906V27.5938H486.352V76.3906L485.227 94.25H485.508Z" fill="#1433D9"/>
</g>
<path d="M167.867 135L160.414 110.531H122.938L115.484 135H92L128.281 31.7812H154.93L191.352 135H167.867ZM155.211 92.25C148.32 70.0781 144.43 57.5391 143.539 54.6328C142.695 51.7266 142.086 49.4297 141.711 47.7422C140.164 53.7422 135.734 68.5781 128.422 92.25H155.211ZM224.117 135H202.672V25.5938H224.117V135ZM245.773 36.0703C245.773 29.0859 249.664 25.5938 257.445 25.5938C265.227 25.5938 269.117 29.0859 269.117 36.0703C269.117 39.3984 268.133 42 266.164 43.875C264.242 45.7031 261.336 46.6172 257.445 46.6172C249.664 46.6172 245.773 43.1016 245.773 36.0703ZM268.133 135H246.688V56.3906H268.133V135ZM334.438 54.9141C343.719 54.9141 350.984 58.5469 356.234 65.8125C361.484 73.0312 364.109 82.9453 364.109 95.5547C364.109 108.539 361.391 118.594 355.953 125.719C350.562 132.844 343.203 136.406 333.875 136.406C324.641 136.406 317.398 133.055 312.148 126.352H310.672L307.086 135H290.703V25.5938H312.148V51.0469C312.148 54.2812 311.867 59.4609 311.305 66.5859H312.148C317.164 58.8047 324.594 54.9141 334.438 54.9141ZM327.547 72.0703C322.25 72.0703 318.383 73.7109 315.945 76.9922C313.508 80.2266 312.242 85.5938 312.148 93.0938V95.4141C312.148 103.852 313.391 109.898 315.875 113.555C318.406 117.211 322.391 119.039 327.828 119.039C332.234 119.039 335.727 117.023 338.305 112.992C340.93 108.914 342.242 103.008 342.242 95.2734C342.242 87.5391 340.93 81.75 338.305 77.9062C335.68 74.0156 332.094 72.0703 327.547 72.0703ZM414.383 70.1719C409.836 70.1719 406.273 71.625 403.695 74.5312C401.117 77.3906 399.641 81.4688 399.266 86.7656H429.359C429.266 81.4688 427.883 77.3906 425.211 74.5312C422.539 71.625 418.93 70.1719 414.383 70.1719ZM417.406 136.406C404.75 136.406 394.859 132.914 387.734 125.93C380.609 118.945 377.047 109.055 377.047 96.2578C377.047 83.0859 380.328 72.9141 386.891 65.7422C393.5 58.5234 402.617 54.9141 414.242 54.9141C425.352 54.9141 434 58.0781 440.188 64.4062C446.375 70.7344 449.469 79.4766 449.469 90.6328V101.039H398.773C399.008 107.133 400.812 111.891 404.188 115.312C407.562 118.734 412.297 120.445 418.391 120.445C423.125 120.445 427.602 119.953 431.82 118.969C436.039 117.984 440.445 116.414 445.039 114.258V130.852C441.289 132.727 437.281 134.109 433.016 135C428.75 135.938 423.547 136.406 417.406 136.406ZM487.508 92.25L496.859 80.2969L518.867 56.3906H543.055L511.836 90.4922L544.953 135H520.203L497.562 103.148L488.352 110.531V135H466.906V25.5938H488.352V74.3906L487.227 92.25H487.508Z" fill="#FFBF17"/>
</g>
<defs>
<clipPath id="clip0">
<rect width="640" height="160" fill="white"/>
</clipPath>
<clipPath id="clip1">
<rect width="456" height="72" fill="white" transform="translate(92 27)"/>
</clipPath>
<clipPath id="clip2">
<rect width="451" height="44" fill="white" transform="translate(92 98)"/>
</clipPath>
</defs>
</svg>
