<?xml version="1.0" standalone="no"?>
<!DOCTYPE svg PUBLIC "-//W3C//DTD SVG 20010904//EN"
 "http://www.w3.org/TR/2001/REC-SVG-20010904/DTD/svg10.dtd">
<svg version="1.0" xmlns="http://www.w3.org/2000/svg"
 width="260.000000pt" height="260.000000pt" viewBox="0 0 260.000000 260.000000"
 preserveAspectRatio="xMidYMid meet">
<metadata>
Created by potrace 1.11, written by Peter Selinger 2001-2013
</metadata>
<g transform="translate(0.000000,260.000000) scale(0.100000,-0.100000)"
fill="#000000" stroke="none">
<path d="M1021 2258 c-64 -195 -651 -2028 -651 -2033 0 -3 77 -4 171 -3 l172
3 56 180 56 180 474 0 473 0 59 -183 60 -182 173 0 173 0 -346 1080 -346 1080
-242 0 -241 0 -41 -122z m289 -230 c0 -7 80 -260 179 -563 98 -302 176 -553
174 -557 -6 -10 -720 -10 -727 0 -2 4 67 230 155 502 88 272 169 525 180 563
19 60 39 88 39 55z"/>
</g>
</svg>
