<svg width="300" height="200" viewBox="0 0 300 200" fill="none" xmlns="http://www.w3.org/2000/svg">
<rect width="300" height="200" fill="#F0F0E6"/>
<path fill-rule="evenodd" clip-rule="evenodd" d="M58.3712 122.138C45.3439 113.631 44.4198 94.6801 56.5605 84.9803L77.8533 67.968C94.0971 54.9898 117.62 69.2437 114.064 89.9097L109.28 117.703C106.51 133.791 88.4501 141.78 74.8806 132.919L58.3712 122.138Z" fill="#5C9D90"/>
<path d="M111.133 85.304C109.973 91.304 107.483 94.654 102.413 97.774L102.323 98.124C107.573 100.624 109.793 106.404 108.463 114.124C106.423 125.634 96.4233 131.064 83.8933 131.064H57.1833C54.3433 131.064 53.5333 130.064 54.0733 127.324L63.8633 71.604C64.4233 68.754 65.4233 67.774 68.3133 67.774H94.4233C106.803 67.774 113.033 74.714 111.163 85.304H111.133ZM85.6733 106.224H75.4233L73.5633 116.644H83.8933C87.6333 116.644 89.8933 115.134 90.4833 111.394C91.1933 107.834 89.5033 106.224 85.6733 106.224ZM88.1633 82.104H79.6233L77.9333 91.894H86.4733C90.0333 91.894 92.1733 90.564 92.7933 87.084C93.4133 83.604 91.8133 82.104 88.1633 82.104V82.104Z" fill="white"/>
<path d="M141.553 94.684C141.402 95.7487 141.001 96.7626 140.385 97.6435C139.768 98.5244 138.952 99.2475 138.003 99.754V99.904C140.143 100.904 141.003 103.274 140.503 106.424C139.673 111.094 135.613 113.304 130.503 113.304H119.603C118.443 113.304 118.123 112.904 118.333 111.784L122.333 89.114C122.543 87.954 122.983 87.554 124.143 87.554H134.743C139.743 87.554 142.313 90.374 141.553 94.684ZM131.193 103.204H127.033L126.273 107.434H130.473C130.791 107.48 131.114 107.461 131.424 107.377C131.733 107.294 132.023 107.148 132.274 106.948C132.525 106.749 132.732 106.5 132.884 106.217C133.035 105.934 133.127 105.624 133.153 105.304C133.423 103.894 132.753 103.204 131.193 103.204ZM132.193 93.384H128.733L128.043 97.384H131.523C132.973 97.384 133.833 96.844 134.093 95.434C134.353 94.024 133.693 93.384 132.203 93.384H132.193Z" fill="#2C2C2C"/>
<path d="M161.833 95.894L159.263 110.384C159.224 110.888 159.024 111.366 158.693 111.747C158.362 112.129 157.917 112.394 157.423 112.504C154.866 113.461 152.153 113.933 149.423 113.894C143.853 113.894 141.853 110.634 142.723 105.714L144.423 95.894C144.427 95.6887 144.476 95.4868 144.565 95.302C144.655 95.1173 144.784 94.9542 144.942 94.824C145.101 94.6937 145.286 94.5995 145.485 94.5477C145.684 94.4959 145.891 94.4878 146.093 94.524H150.093C151.093 94.524 151.433 94.884 151.253 95.894L149.513 105.824C149.263 107.234 149.803 107.824 151.283 107.824C151.784 107.835 152.285 107.784 152.773 107.674C152.858 107.67 152.938 107.635 152.998 107.576C153.059 107.517 153.096 107.438 153.103 107.354L155.103 95.904C155.283 94.904 155.713 94.534 156.763 94.534H160.763C161.763 94.534 162.103 94.894 161.923 95.904" fill="#2C2C2C"/>
<path d="M181.933 95.894L178.853 113.534C177.983 118.354 174.983 121.684 168.713 121.684C164.623 121.684 162.593 120.414 161.503 118.024C161.033 117.024 161.503 116.394 162.503 115.924L165.583 114.514C166.773 113.974 167.103 114.294 167.503 114.984C167.689 115.374 167.99 115.698 168.365 115.913C168.741 116.127 169.173 116.222 169.603 116.184C170.197 116.217 170.781 116.016 171.228 115.623C171.675 115.23 171.95 114.677 171.993 114.084L172.203 112.664C171.388 112.775 170.566 112.825 169.743 112.814C164.163 112.814 162.173 109.404 163.043 104.484L164.583 95.894C164.763 94.894 165.163 94.524 166.213 94.524H170.213C171.263 94.524 171.513 94.884 171.333 95.894L169.773 104.734C169.523 106.144 170.133 106.734 171.623 106.734C172.193 106.745 172.763 106.698 173.323 106.594L175.193 95.894C175.195 95.6916 175.24 95.492 175.327 95.3089C175.413 95.1258 175.538 94.9635 175.692 94.8333C175.847 94.7031 176.029 94.608 176.224 94.5546C176.419 94.5012 176.624 94.4908 176.823 94.524H180.823C181.873 94.524 182.123 94.884 181.943 95.894" fill="#2C2C2C"/>
<path d="M207.323 89.074L195.323 112.074C195.164 112.491 194.869 112.842 194.487 113.072C194.105 113.302 193.656 113.398 193.213 113.344H188.653C187.603 113.344 187.173 113.094 186.983 112.154L183.043 89.154C182.863 88.154 183.253 87.664 184.343 87.664H188.423C190.193 87.664 190.743 88.064 190.813 89.194L192.083 101.574C192.202 103.132 192.202 104.696 192.083 106.254H192.403C192.764 104.663 193.273 103.11 193.923 101.614L199.613 89.194C200.123 88.064 200.613 87.664 202.433 87.664H206.643C207.763 87.664 207.903 88.174 207.363 89.154" fill="#2C2C2C"/>
<path d="M214.563 95.894L211.743 111.894C211.563 112.894 211.123 113.274 210.073 113.274H206.073C205.073 113.274 204.733 112.914 204.913 111.894L207.793 95.894C207.973 94.894 208.403 94.524 209.453 94.524H213.423C214.473 94.524 214.763 94.884 214.583 95.894H214.563ZM215.853 89.894L215.783 90.294C215.413 92.294 214.693 92.974 212.633 92.974H210.823C208.753 92.974 208.243 92.324 208.613 90.294V89.894C209.013 87.894 209.773 87.214 211.803 87.214H213.613C215.683 87.154 216.193 87.804 215.833 89.834L215.853 89.894Z" fill="#2C2C2C"/>
<path d="M219.853 113.304H215.853C214.853 113.304 214.513 112.944 214.693 111.924L218.933 87.924C219.113 86.924 219.553 86.554 220.603 86.554H224.543C225.593 86.554 225.883 86.914 225.703 87.924L221.523 111.894C221.521 112.1 221.473 112.303 221.384 112.489C221.295 112.675 221.167 112.84 221.008 112.971C220.849 113.102 220.663 113.197 220.464 113.25C220.265 113.302 220.056 113.31 219.853 113.274" fill="#2C2C2C"/>
<path d="M234.153 95.894L231.333 111.894C231.153 112.894 230.713 113.274 229.663 113.274H225.663C224.663 113.274 224.333 112.914 224.513 111.894L227.423 95.894C227.603 94.894 228.043 94.524 229.093 94.524H233.033C234.093 94.524 234.383 94.884 234.193 95.894H234.153ZM235.463 89.894L235.393 90.294C235.033 92.294 234.303 92.974 232.243 92.974H230.423C228.353 92.974 227.853 92.324 228.213 90.294V89.894C228.613 87.894 229.373 87.214 231.403 87.214H233.213C235.283 87.154 235.783 87.804 235.423 89.834L235.463 89.894Z" fill="#2C2C2C"/>
<path d="M244.953 93.894C249.623 93.894 251.543 95.454 252.483 97.774C252.843 98.714 252.553 99.294 251.393 99.774L248.643 100.934C247.413 101.474 247.263 101.044 246.833 100.424C246.536 100.058 246.15 99.7748 245.713 99.5998C245.276 99.4248 244.801 99.3643 244.333 99.424C242.523 99.424 242.013 99.704 241.903 100.424C241.793 101.144 242.343 101.424 244.663 101.624C250.203 102.094 252.263 103.864 251.573 107.744C250.883 111.624 247.573 113.824 242.013 113.824C237.413 113.824 234.733 112.344 234.123 109.514C233.903 108.514 234.303 107.994 235.313 107.634L238.393 106.634C239.593 106.234 239.843 106.524 240.203 107.174C240.563 107.824 241.203 108.334 242.703 108.334C244.623 108.334 245.383 108.004 245.533 107.214C245.673 106.264 245.093 106.054 242.303 105.874C237.853 105.584 235.133 103.874 235.893 99.714C236.543 95.984 239.553 93.914 244.953 93.914" fill="#2C2C2C"/>
</svg>
