<svg width="300" height="200" viewBox="0 0 300 200" fill="none" xmlns="http://www.w3.org/2000/svg">
<rect width="300" height="200" fill="#F0F0E6"/>
<path d="M81.5062 128.481V102.255C80.9983 101.918 80.5468 101.411 80.321 100.848C80.1517 100.511 80.0388 100.117 79.9824 99.6666L79.418 92.1255H68.582L68.1869 97.8095L68.0741 99.6666C68.0176 100.792 67.3404 101.749 66.4374 102.312V128.424H81.5062V128.481Z" fill="#F2F2F2"/>
<path d="M80.321 100.848C71.2345 107.996 68.2433 98.1472 68.1869 97.8095L68.582 92.1255H79.4744L80.0388 99.6667C80.0388 100.117 80.0952 100.511 80.321 100.848Z" fill="#E0E0E0"/>
<path d="M74 94.8268C80.6391 94.8268 86.0212 89.5357 86.0212 83.0087C86.0212 76.4817 80.6391 71.1905 74 71.1905C67.3608 71.1905 61.9788 76.4817 61.9788 83.0087C61.9788 89.5357 67.3608 94.8268 74 94.8268Z" fill="#2B3B4E"/>
<path d="M85.9648 85.4849C85.5133 85.2597 84.9489 85.3723 84.3845 85.7662C84.3845 85.5411 84.3845 85.316 84.3845 85.0909C84.3845 78 79.7002 75.4113 74 75.4113C68.2434 75.4113 63.6155 78 63.6155 85.0909C63.6155 85.316 63.6155 85.5411 63.6155 85.7662C63.0511 85.3723 62.4868 85.2035 62.0353 85.4849C61.1323 85.9913 61.0194 87.6797 61.7531 89.368C62.4868 91 63.7848 92.013 64.6878 91.5065C66.381 96.6277 69.9365 101.074 74 101.074C78.0635 101.074 81.5627 96.6277 83.3122 91.5065C84.2152 91.9567 85.5133 91 86.247 89.368C86.9807 87.6797 86.8113 85.9351 85.9648 85.4849Z" fill="#F2F2F2"/>
<path d="M66.9452 103.493C66.9452 103.493 72.4761 111.485 80.9982 103.493C80.9982 103.493 82.5784 113.173 73.9435 127.974C73.9999 127.974 63.2204 108.221 66.9452 103.493Z" fill="#FFD05B"/>
<path d="M100 130C100 122.009 96.4865 109.664 94.0918 107.883C91.5676 106.859 90.3104 106.701 88.5609 105.801C84.1588 103.55 81.4498 101.974 80.9983 101.58C80.9983 101.58 80.9983 101.58 80.9418 101.524C80.6032 101.13 80.3774 100.961 80.321 100.905C80.4903 101.242 82.7478 105.688 79.3616 113.004C79.3616 113.004 76.4833 121.277 74.0564 127.918C71.6296 121.277 68.7513 113.004 68.7513 113.004C65.3651 105.688 67.6226 101.186 67.7919 100.905C67.7354 100.961 67.5097 101.186 67.1711 101.524C67.1711 101.524 67.1711 101.524 67.1146 101.58C66.6067 101.974 63.9541 103.55 59.552 105.801C57.8589 106.645 56.1093 107.377 54.3033 107.883C52.0458 108.502 48 121.84 48 130C55.7297 130 63.3897 129.775 73.3227 130C73.4356 130 74.6772 130 74.7901 130C84.5405 130 92.2703 130 100 130Z" fill="#2B3B4E"/>
<path d="M74 93.5887C72.0247 92.5758 71.2346 95.6147 68.0741 93.8701C68.0741 93.8701 69.3157 97.303 74 95.2208C78.6844 97.2468 79.926 93.8701 79.926 93.8701C76.7655 95.6147 75.9754 92.5758 74 93.5887Z" fill="#324A5E"/>
<path d="M62.8254 76.1991H85.2311C87.4321 75.355 89.1817 74.1732 89.8589 72.8225C91.7778 68.9394 84.8924 65 74.0564 65C63.164 65 56.335 68.9394 58.2539 72.8225C58.8747 74.1732 60.5679 75.355 62.8254 76.1991Z" fill="#FFD05B"/>
<path d="M62.8254 76.1991C69.993 73.8918 78.0636 73.8918 85.2311 76.1991C85.2311 77.2121 85.2311 78.2251 85.2311 79.2944C77.7814 79.2944 70.2752 79.2944 62.8254 79.2944C62.8254 78.2251 62.8254 77.2121 62.8254 76.1991Z" fill="#F9B54C"/>
<path d="M85.2311 78.7879C85.2311 81.7143 80.2081 84.0779 74 84.0779C67.7919 84.0779 62.7689 81.7143 62.7689 78.8442C62.7689 78.8442 67.7919 79.013 74 79.013C80.2081 78.9567 85.2311 78.7879 85.2311 78.7879Z" fill="#FFD05B"/>
<path d="M71.0088 67.8138H68.9771V69.8398H71.0088V67.8138Z" fill="#324A5E"/>
<path d="M73.0405 69.8398H71.0088V71.8658H73.0405V69.8398Z" fill="#324A5E"/>
<path d="M75.0159 67.8138H72.9841V69.8398H75.0159V67.8138Z" fill="#324A5E"/>
<path d="M79.023 67.8138H76.9912V69.8398H79.023V67.8138Z" fill="#324A5E"/>
<path d="M77.0476 69.8398H75.0159V71.8658H77.0476V69.8398Z" fill="#324A5E"/>
<path d="M116.602 70.112H124.036V71.642H118.312V75.548H123.28V77.078H118.312V81.47H124.126V83H116.602V70.112ZM132.697 75.008H129.295C129.259 75.896 129.211 76.694 129.151 77.402C129.091 78.11 129.013 78.734 128.917 79.274C128.833 79.814 128.719 80.282 128.575 80.678C128.431 81.062 128.257 81.386 128.053 81.65H132.697V75.008ZM134.101 83H127.153L126.991 85.664H125.569V81.65H126.271C126.607 81.446 126.871 81.128 127.063 80.696C127.255 80.264 127.405 79.718 127.513 79.058C127.621 78.398 127.693 77.618 127.729 76.718C127.777 75.818 127.819 74.798 127.855 73.658H134.281V81.65H135.685V85.664H134.299L134.101 83ZM137.515 73.658H139.099V80.84L144.085 73.658H145.687V83H144.103V75.836L139.135 83H137.515V73.658ZM154.568 78.86H150.05V83H148.466V73.658H150.05V77.51H154.568V73.658H156.152V83H154.568V78.86ZM168.771 83H167.187V73.658H168.771V83ZM160.509 78.266V81.65H161.931C162.615 81.65 163.167 81.524 163.587 81.272C164.019 81.008 164.235 80.576 164.235 79.976C164.235 79.364 164.043 78.926 163.659 78.662C163.275 78.398 162.741 78.266 162.057 78.266H160.509ZM158.925 73.658H160.509V76.916H162.057C163.233 76.916 164.157 77.15 164.829 77.618C165.501 78.086 165.837 78.842 165.837 79.886C165.837 80.426 165.741 80.894 165.549 81.29C165.357 81.686 165.087 82.01 164.739 82.262C164.391 82.514 163.977 82.7 163.497 82.82C163.017 82.94 162.495 83 161.931 83H158.925V73.658ZM175.668 72.416C175.188 72.416 174.768 72.356 174.408 72.236C174.06 72.104 173.766 71.93 173.526 71.714C173.298 71.486 173.124 71.228 173.004 70.94C172.896 70.64 172.842 70.316 172.842 69.968H174.426C174.426 70.424 174.534 70.754 174.75 70.958C174.978 71.162 175.284 71.264 175.668 71.264C176.052 71.264 176.352 71.162 176.568 70.958C176.784 70.754 176.892 70.424 176.892 69.968H178.476C178.476 70.652 178.242 71.234 177.774 71.714C177.318 72.182 176.616 72.416 175.668 72.416ZM171.546 73.658H173.13V80.84L178.116 73.658H179.718V83H178.134V75.836L173.166 83H171.546V73.658ZM196.057 86.06L195.877 83H186.247V70.112H187.957V81.47H194.239V70.112H195.949V81.47H197.641V86.06H196.057ZM203.468 74.882C202.772 74.882 202.178 75.092 201.686 75.512C201.194 75.932 200.882 76.568 200.75 77.42H205.772C205.796 76.988 205.754 76.616 205.646 76.304C205.538 75.98 205.382 75.716 205.178 75.512C204.974 75.296 204.722 75.14 204.422 75.044C204.134 74.936 203.816 74.882 203.468 74.882ZM207.194 82.208C207.062 82.304 206.894 82.406 206.69 82.514C206.498 82.622 206.264 82.73 205.988 82.838C205.712 82.934 205.394 83.012 205.034 83.072C204.686 83.144 204.296 83.18 203.864 83.18C202.292 83.18 201.098 82.754 200.282 81.902C199.466 81.05 199.058 79.856 199.058 78.32C199.058 77.564 199.166 76.886 199.382 76.286C199.61 75.686 199.922 75.182 200.318 74.774C200.714 74.354 201.182 74.036 201.722 73.82C202.274 73.592 202.868 73.478 203.504 73.478C204.164 73.478 204.758 73.592 205.286 73.82C205.814 74.048 206.246 74.384 206.582 74.828C206.93 75.272 207.164 75.824 207.284 76.484C207.416 77.132 207.416 77.888 207.284 78.752H200.696C200.756 79.76 201.062 80.516 201.614 81.02C202.166 81.512 202.946 81.758 203.954 81.758C204.614 81.758 205.172 81.656 205.628 81.452C206.084 81.236 206.468 81.02 206.78 80.804L207.194 82.208ZM215.599 78.86H211.081V83H209.497V73.658H211.081V77.51H215.599V73.658H217.183V83H215.599V78.86ZM223.628 75.008V83H222.044V75.008H219.2V73.658H226.526V75.008H223.628ZM232.998 81.758C233.826 81.758 234.492 81.476 234.996 80.912C235.512 80.336 235.77 79.472 235.77 78.32C235.77 77.192 235.512 76.34 234.996 75.764C234.492 75.176 233.826 74.882 232.998 74.882C232.59 74.882 232.206 74.954 231.846 75.098C231.498 75.242 231.192 75.458 230.928 75.746C230.676 76.022 230.472 76.376 230.316 76.808C230.172 77.24 230.1 77.744 230.1 78.32C230.1 78.896 230.172 79.4 230.316 79.832C230.472 80.264 230.676 80.624 230.928 80.912C231.192 81.2 231.498 81.416 231.846 81.56C232.206 81.692 232.59 81.758 232.998 81.758ZM233.232 83.18C232.512 83.18 231.888 83.012 231.36 82.676C230.844 82.34 230.43 81.878 230.118 81.29V86.186H228.534V73.658H229.938L230.082 75.494C230.394 74.882 230.814 74.396 231.342 74.036C231.87 73.664 232.524 73.478 233.304 73.478C233.844 73.478 234.36 73.58 234.852 73.784C235.356 73.976 235.794 74.276 236.166 74.684C236.55 75.08 236.85 75.584 237.066 76.196C237.294 76.796 237.408 77.504 237.408 78.32C237.408 79.148 237.294 79.868 237.066 80.48C236.838 81.08 236.532 81.584 236.148 81.992C235.764 82.388 235.32 82.688 234.816 82.892C234.312 83.084 233.784 83.18 233.232 83.18ZM124.594 94.642H118.312V106H116.602V93.112H126.304V106H124.594V94.642ZM133.105 106.18C132.469 106.18 131.875 106.072 131.323 105.856C130.771 105.64 130.291 105.328 129.883 104.92C129.487 104.5 129.175 103.99 128.947 103.39C128.719 102.79 128.605 102.1 128.605 101.32C128.605 100.552 128.719 99.868 128.947 99.268C129.175 98.656 129.487 98.146 129.883 97.738C130.291 97.33 130.771 97.018 131.323 96.802C131.875 96.586 132.469 96.478 133.105 96.478C133.753 96.478 134.353 96.586 134.905 96.802C135.457 97.018 135.931 97.33 136.327 97.738C136.735 98.146 137.053 98.656 137.281 99.268C137.521 99.868 137.641 100.552 137.641 101.32C137.641 102.1 137.521 102.79 137.281 103.39C137.053 103.99 136.735 104.5 136.327 104.92C135.931 105.328 135.457 105.64 134.905 105.856C134.353 106.072 133.753 106.18 133.105 106.18ZM133.105 104.758C133.525 104.758 133.915 104.692 134.275 104.56C134.635 104.416 134.941 104.206 135.193 103.93C135.457 103.642 135.661 103.282 135.805 102.85C135.961 102.418 136.039 101.908 136.039 101.32C136.039 100.732 135.961 100.222 135.805 99.79C135.661 99.358 135.457 99.004 135.193 98.728C134.941 98.44 134.635 98.23 134.275 98.098C133.915 97.954 133.525 97.882 133.105 97.882C132.685 97.882 132.301 97.954 131.953 98.098C131.605 98.23 131.299 98.44 131.035 98.728C130.783 99.004 130.585 99.358 130.441 99.79C130.297 100.222 130.225 100.732 130.225 101.32C130.225 101.908 130.297 102.418 130.441 102.85C130.585 103.282 130.783 103.642 131.035 103.93C131.299 104.206 131.605 104.416 131.953 104.56C132.301 104.692 132.685 104.758 133.105 104.758ZM145.581 98.008H142.179C142.143 98.896 142.095 99.694 142.035 100.402C141.975 101.11 141.897 101.734 141.801 102.274C141.717 102.814 141.603 103.282 141.459 103.678C141.315 104.062 141.141 104.386 140.937 104.65H145.581V98.008ZM146.985 106H140.037L139.875 108.664H138.453V104.65H139.155C139.491 104.446 139.755 104.128 139.947 103.696C140.139 103.264 140.289 102.718 140.397 102.058C140.505 101.398 140.577 100.618 140.613 99.718C140.661 98.818 140.703 97.798 140.739 96.658H147.165V104.65H148.569V108.664H147.183L146.985 106ZM152.812 102.022H151.984V106H150.4V96.658H151.984V100.672H152.884L156.16 96.658H157.96L154.126 101.266L158.032 106H156.106L152.812 102.022ZM161.912 103.588C161.708 104.44 161.378 105.07 160.922 105.478C160.478 105.874 159.854 106.06 159.05 106.036L158.816 104.596C159.644 104.632 160.178 104.188 160.418 103.264C160.598 102.568 160.712 101.692 160.76 100.636C160.82 99.568 160.85 98.242 160.85 96.658H166.934V106H165.35V98.008H162.344C162.332 99.196 162.296 100.252 162.236 101.176C162.188 102.1 162.08 102.904 161.912 103.588ZM177.134 106.18C176.558 106.18 176.018 106.084 175.514 105.892C175.022 105.7 174.584 105.424 174.2 105.064C173.828 104.692 173.522 104.236 173.282 103.696C173.042 103.156 172.898 102.544 172.85 101.86H171.284V106H169.7V96.658H171.284V100.51H172.886C172.958 99.862 173.114 99.292 173.354 98.8C173.594 98.296 173.9 97.876 174.272 97.54C174.656 97.192 175.088 96.928 175.568 96.748C176.048 96.568 176.57 96.478 177.134 96.478C177.758 96.478 178.334 96.586 178.862 96.802C179.39 97.018 179.846 97.33 180.23 97.738C180.626 98.146 180.932 98.656 181.148 99.268C181.376 99.868 181.49 100.552 181.49 101.32C181.49 102.1 181.376 102.79 181.148 103.39C180.932 103.99 180.626 104.5 180.23 104.92C179.846 105.328 179.39 105.64 178.862 105.856C178.334 106.072 177.758 106.18 177.134 106.18ZM177.134 104.758C177.53 104.758 177.89 104.692 178.214 104.56C178.55 104.416 178.838 104.206 179.078 103.93C179.318 103.642 179.504 103.282 179.636 102.85C179.78 102.418 179.852 101.908 179.852 101.32C179.852 100.732 179.78 100.222 179.636 99.79C179.504 99.358 179.318 99.004 179.078 98.728C178.838 98.44 178.55 98.23 178.214 98.098C177.89 97.954 177.53 97.882 177.134 97.882C176.75 97.882 176.39 97.954 176.054 98.098C175.73 98.23 175.448 98.44 175.208 98.728C174.968 99.004 174.776 99.358 174.632 99.79C174.5 100.222 174.434 100.732 174.434 101.32C174.434 101.908 174.5 102.418 174.632 102.85C174.776 103.282 174.968 103.642 175.208 103.93C175.448 104.206 175.73 104.416 176.054 104.56C176.39 104.692 176.75 104.758 177.134 104.758ZM188.993 106V101.842C188.681 102.094 188.303 102.298 187.859 102.454C187.427 102.61 186.923 102.688 186.347 102.688C185.351 102.688 184.571 102.424 184.007 101.896C183.443 101.368 183.161 100.552 183.161 99.448V96.658H184.763V99.412C184.763 100.144 184.925 100.654 185.249 100.942C185.573 101.23 186.005 101.374 186.545 101.374C187.097 101.374 187.589 101.272 188.021 101.068C188.453 100.864 188.777 100.606 188.993 100.294V96.658H190.577V106H188.993ZM197.105 97.882C196.409 97.882 195.815 98.092 195.323 98.512C194.831 98.932 194.519 99.568 194.387 100.42H199.409C199.433 99.988 199.391 99.616 199.283 99.304C199.175 98.98 199.019 98.716 198.815 98.512C198.611 98.296 198.359 98.14 198.059 98.044C197.771 97.936 197.453 97.882 197.105 97.882ZM200.831 105.208C200.699 105.304 200.531 105.406 200.327 105.514C200.135 105.622 199.901 105.73 199.625 105.838C199.349 105.934 199.031 106.012 198.671 106.072C198.323 106.144 197.933 106.18 197.501 106.18C195.929 106.18 194.735 105.754 193.919 104.902C193.103 104.05 192.695 102.856 192.695 101.32C192.695 100.564 192.803 99.886 193.019 99.286C193.247 98.686 193.559 98.182 193.955 97.774C194.351 97.354 194.819 97.036 195.359 96.82C195.911 96.592 196.505 96.478 197.141 96.478C197.801 96.478 198.395 96.592 198.923 96.82C199.451 97.048 199.883 97.384 200.219 97.828C200.567 98.272 200.801 98.824 200.921 99.484C201.053 100.132 201.053 100.888 200.921 101.752H194.333C194.393 102.76 194.699 103.516 195.251 104.02C195.803 104.512 196.583 104.758 197.591 104.758C198.251 104.758 198.809 104.656 199.265 104.452C199.721 104.236 200.105 104.02 200.417 103.804L200.831 105.208ZM209.236 101.86H204.718V106H203.134V96.658H204.718V100.51H209.236V96.658H210.82V106H209.236V101.86ZM213.593 96.658H215.177V103.84L220.163 96.658H221.765V106H220.181V98.836L215.213 106H213.593V96.658ZM229.62 101.266V98.008H228.378C227.706 98.008 227.154 98.134 226.722 98.386C226.29 98.638 226.074 99.046 226.074 99.61C226.074 100.198 226.266 100.624 226.65 100.888C227.034 101.14 227.58 101.266 228.288 101.266H229.62ZM229.62 102.616H228.018L225.624 106H223.806L226.506 102.22C225.858 102.028 225.354 101.734 224.994 101.338C224.646 100.942 224.472 100.39 224.472 99.682C224.472 99.154 224.568 98.704 224.76 98.332C224.952 97.948 225.222 97.636 225.57 97.396C225.918 97.144 226.332 96.958 226.812 96.838C227.292 96.718 227.814 96.658 228.378 96.658H231.186V106H229.62V102.616ZM118.312 116.642V120.602H120.094C120.922 120.602 121.588 120.422 122.092 120.062C122.608 119.702 122.866 119.126 122.866 118.334C122.866 117.674 122.632 117.23 122.164 117.002C121.708 116.762 121.066 116.642 120.238 116.642H118.312ZM118.312 122.132V126.47H120.382C120.838 126.47 121.252 126.434 121.624 126.362C121.996 126.29 122.314 126.17 122.578 126.002C122.854 125.834 123.064 125.612 123.208 125.336C123.364 125.06 123.442 124.718 123.442 124.31C123.442 123.494 123.184 122.93 122.668 122.618C122.152 122.294 121.33 122.132 120.202 122.132H118.312ZM116.602 115.112H120.238C121.642 115.112 122.716 115.352 123.46 115.832C124.204 116.3 124.576 117.104 124.576 118.244C124.576 119.156 124.348 119.852 123.892 120.332C123.436 120.8 122.824 121.118 122.056 121.286C123.1 121.394 123.886 121.682 124.414 122.15C124.954 122.606 125.224 123.314 125.224 124.274C125.224 124.946 125.104 125.522 124.864 126.002C124.624 126.47 124.288 126.854 123.856 127.154C123.424 127.442 122.908 127.658 122.308 127.802C121.72 127.934 121.078 128 120.382 128H116.602V115.112ZM131.47 128.18C130.834 128.18 130.24 128.072 129.688 127.856C129.136 127.64 128.656 127.328 128.248 126.92C127.852 126.5 127.54 125.99 127.312 125.39C127.084 124.79 126.97 124.1 126.97 123.32C126.97 122.552 127.084 121.868 127.312 121.268C127.54 120.656 127.852 120.146 128.248 119.738C128.656 119.33 129.136 119.018 129.688 118.802C130.24 118.586 130.834 118.478 131.47 118.478C132.118 118.478 132.718 118.586 133.27 118.802C133.822 119.018 134.296 119.33 134.692 119.738C135.1 120.146 135.418 120.656 135.646 121.268C135.886 121.868 136.006 122.552 136.006 123.32C136.006 124.1 135.886 124.79 135.646 125.39C135.418 125.99 135.1 126.5 134.692 126.92C134.296 127.328 133.822 127.64 133.27 127.856C132.718 128.072 132.118 128.18 131.47 128.18ZM131.47 126.758C131.89 126.758 132.28 126.692 132.64 126.56C133 126.416 133.306 126.206 133.558 125.93C133.822 125.642 134.026 125.282 134.17 124.85C134.326 124.418 134.404 123.908 134.404 123.32C134.404 122.732 134.326 122.222 134.17 121.79C134.026 121.358 133.822 121.004 133.558 120.728C133.306 120.44 133 120.23 132.64 120.098C132.28 119.954 131.89 119.882 131.47 119.882C131.05 119.882 130.666 119.954 130.318 120.098C129.97 120.23 129.664 120.44 129.4 120.728C129.148 121.004 128.95 121.358 128.806 121.79C128.662 122.222 128.59 122.732 128.59 123.32C128.59 123.908 128.662 124.418 128.806 124.85C128.95 125.282 129.148 125.642 129.4 125.93C129.664 126.206 129.97 126.416 130.318 126.56C130.666 126.692 131.05 126.758 131.47 126.758ZM143.947 120.008H140.545C140.509 120.896 140.461 121.694 140.401 122.402C140.341 123.11 140.263 123.734 140.167 124.274C140.083 124.814 139.969 125.282 139.825 125.678C139.681 126.062 139.507 126.386 139.303 126.65H143.947V120.008ZM145.351 128H138.403L138.241 130.664H136.819V126.65H137.521C137.857 126.446 138.121 126.128 138.313 125.696C138.505 125.264 138.655 124.718 138.763 124.058C138.871 123.398 138.943 122.618 138.979 121.718C139.027 120.818 139.069 119.798 139.105 118.658H145.531V126.65H146.935V130.664H145.549L145.351 128ZM148.765 118.658H150.349V125.84L155.335 118.658H156.937V128H155.353V120.836L150.385 128H148.765V118.658ZM163.388 120.008V128H161.804V120.008H158.96V118.658H166.286V120.008H163.388ZM171.775 119.882C171.079 119.882 170.485 120.092 169.993 120.512C169.501 120.932 169.189 121.568 169.057 122.42H174.079C174.103 121.988 174.061 121.616 173.953 121.304C173.845 120.98 173.689 120.716 173.485 120.512C173.281 120.296 173.029 120.14 172.729 120.044C172.441 119.936 172.123 119.882 171.775 119.882ZM175.501 127.208C175.369 127.304 175.201 127.406 174.997 127.514C174.805 127.622 174.571 127.73 174.295 127.838C174.019 127.934 173.701 128.012 173.341 128.072C172.993 128.144 172.603 128.18 172.171 128.18C170.599 128.18 169.405 127.754 168.589 126.902C167.773 126.05 167.365 124.856 167.365 123.32C167.365 122.564 167.473 121.886 167.689 121.286C167.917 120.686 168.229 120.182 168.625 119.774C169.021 119.354 169.489 119.036 170.029 118.82C170.581 118.592 171.175 118.478 171.811 118.478C172.471 118.478 173.065 118.592 173.593 118.82C174.121 119.048 174.553 119.384 174.889 119.828C175.237 120.272 175.471 120.824 175.591 121.484C175.723 122.132 175.723 122.888 175.591 123.752H169.003C169.063 124.76 169.369 125.516 169.921 126.02C170.473 126.512 171.253 126.758 172.261 126.758C172.921 126.758 173.479 126.656 173.935 126.452C174.391 126.236 174.775 126.02 175.087 125.804L175.501 127.208ZM179.982 125.588C179.778 126.44 179.448 127.07 178.992 127.478C178.548 127.874 177.924 128.06 177.12 128.036L176.886 126.596C177.714 126.632 178.248 126.188 178.488 125.264C178.668 124.568 178.782 123.692 178.83 122.636C178.89 121.568 178.92 120.242 178.92 118.658H185.004V128H183.42V120.008H180.414C180.402 121.196 180.366 122.252 180.306 123.176C180.258 124.1 180.15 124.904 179.982 125.588ZM191.515 119.882C190.819 119.882 190.225 120.092 189.733 120.512C189.241 120.932 188.929 121.568 188.797 122.42H193.819C193.843 121.988 193.801 121.616 193.693 121.304C193.585 120.98 193.429 120.716 193.225 120.512C193.021 120.296 192.769 120.14 192.469 120.044C192.181 119.936 191.863 119.882 191.515 119.882ZM195.241 127.208C195.109 127.304 194.941 127.406 194.737 127.514C194.545 127.622 194.311 127.73 194.035 127.838C193.759 127.934 193.441 128.012 193.081 128.072C192.733 128.144 192.343 128.18 191.911 128.18C190.339 128.18 189.145 127.754 188.329 126.902C187.513 126.05 187.105 124.856 187.105 123.32C187.105 122.564 187.213 121.886 187.429 121.286C187.657 120.686 187.969 120.182 188.365 119.774C188.761 119.354 189.229 119.036 189.769 118.82C190.321 118.592 190.915 118.478 191.551 118.478C192.211 118.478 192.805 118.592 193.333 118.82C193.861 119.048 194.293 119.384 194.629 119.828C194.977 120.272 195.211 120.824 195.331 121.484C195.463 122.132 195.463 122.888 195.331 123.752H188.743C188.803 124.76 189.109 125.516 189.661 126.02C190.213 126.512 190.993 126.758 192.001 126.758C192.661 126.758 193.219 126.656 193.675 126.452C194.131 126.236 194.515 126.02 194.827 125.804L195.241 127.208ZM201.666 117.416C201.186 117.416 200.766 117.356 200.406 117.236C200.058 117.104 199.764 116.93 199.524 116.714C199.296 116.486 199.122 116.228 199.002 115.94C198.894 115.64 198.84 115.316 198.84 114.968H200.424C200.424 115.424 200.532 115.754 200.748 115.958C200.976 116.162 201.282 116.264 201.666 116.264C202.05 116.264 202.35 116.162 202.566 115.958C202.782 115.754 202.89 115.424 202.89 114.968H204.474C204.474 115.652 204.24 116.234 203.772 116.714C203.316 117.182 202.614 117.416 201.666 117.416ZM197.544 118.658H199.128V125.84L204.114 118.658H205.716V128H204.132V120.836L199.164 128H197.544V118.658ZM217.159 117.056V128H214.855V117.056H211.147V115.112H220.885V117.056H217.159ZM224.382 126.506C224.67 126.506 224.928 126.464 225.156 126.38C225.384 126.296 225.588 126.194 225.768 126.074C225.96 125.942 226.122 125.798 226.254 125.642C226.398 125.486 226.518 125.33 226.614 125.174V123.752H225.552C224.652 123.752 224.01 123.884 223.626 124.148C223.242 124.412 223.05 124.772 223.05 125.228C223.05 125.624 223.164 125.936 223.392 126.164C223.62 126.392 223.95 126.506 224.382 126.506ZM226.848 128C226.824 127.844 226.794 127.64 226.758 127.388C226.734 127.136 226.716 126.896 226.704 126.668C226.572 126.86 226.416 127.046 226.236 127.226C226.056 127.406 225.846 127.568 225.606 127.712C225.366 127.856 225.09 127.97 224.778 128.054C224.478 128.138 224.142 128.18 223.77 128.18C223.374 128.18 222.996 128.12 222.636 128C222.288 127.892 221.982 127.724 221.718 127.496C221.454 127.268 221.244 126.986 221.088 126.65C220.944 126.314 220.872 125.918 220.872 125.462C220.872 124.454 221.244 123.686 221.988 123.158C222.732 122.618 223.884 122.348 225.444 122.348H226.614V121.88C226.614 121.268 226.452 120.848 226.128 120.62C225.804 120.38 225.312 120.26 224.652 120.26C224.076 120.26 223.548 120.338 223.068 120.494C222.6 120.65 222.174 120.83 221.79 121.034L221.34 119.306C221.724 119.102 222.222 118.916 222.833 118.748C223.458 118.568 224.148 118.478 224.904 118.478C226.14 118.478 227.1 118.736 227.784 119.252C228.468 119.756 228.81 120.572 228.81 121.7V126.488C228.81 126.596 228.81 126.722 228.81 126.866C228.822 126.998 228.828 127.136 228.828 127.28C228.84 127.424 228.846 127.562 228.846 127.694C228.858 127.814 228.87 127.916 228.882 128H226.848ZM234.085 124.238H233.275V128H231.097V118.658H233.275V122.492H234.139L237.055 118.658H239.323L235.849 123.14L239.503 128H236.911L234.085 124.238ZM244.805 128.18C244.061 128.18 243.383 128.072 242.771 127.856C242.159 127.64 241.637 127.328 241.205 126.92C240.773 126.5 240.437 125.99 240.197 125.39C239.957 124.79 239.837 124.106 239.837 123.338C239.837 122.582 239.957 121.904 240.197 121.304C240.437 120.692 240.773 120.182 241.205 119.774C241.637 119.354 242.153 119.036 242.753 118.82C243.353 118.592 244.007 118.478 244.715 118.478C245.363 118.478 245.927 118.55 246.407 118.694C246.899 118.826 247.295 119 247.595 119.216L247.145 120.908C246.833 120.728 246.491 120.578 246.119 120.458C245.759 120.326 245.309 120.26 244.769 120.26C243.941 120.26 243.287 120.518 242.807 121.034C242.327 121.538 242.087 122.306 242.087 123.338C242.087 124.334 242.333 125.09 242.825 125.606C243.317 126.122 244.001 126.38 244.877 126.38C245.369 126.38 245.789 126.32 246.137 126.2C246.485 126.08 246.815 125.93 247.127 125.75L247.577 127.442C247.265 127.646 246.887 127.82 246.443 127.964C245.999 128.108 245.453 128.18 244.805 128.18ZM249.483 118.658H251.643V125.12L256.107 118.658H258.249V128H256.089V121.556L251.643 128H249.483V118.658Z" fill="#181818"/>
</svg>
