<svg width="300" height="200" viewBox="0 0 300 200" fill="none" xmlns="http://www.w3.org/2000/svg">
<rect width="300" height="200" fill="#2C2C2C"/>
<path fill-rule="evenodd" clip-rule="evenodd" d="M156.606 84.9968C155.32 72.8358 175.924 72.2411 176.743 83.1323C177.672 95.4283 157.75 95.8494 156.606 84.9968ZM165.306 72.1093C147.98 73.2858 148.613 97.1256 168.265 96.1098C184.868 95.2482 185.032 70.7624 165.306 72.1093Z" fill="#F0F0E6"/>
<path fill-rule="evenodd" clip-rule="evenodd" d="M114.988 92.4837C119.715 96.3991 133.949 98.6976 136.95 90.9953C137.455 89.6799 137.536 88.24 137.184 86.8761C136.831 85.5121 136.062 84.2922 134.984 83.3862C133.055 81.8304 129.298 81.2324 126.885 81.2453C124.748 81.2453 119.191 81.5989 119.622 78.1817C119.985 75.2886 124.741 75.1664 126.872 75.4236C131.015 75.9186 133.666 78.1142 134.341 78.2621L136.15 75.3175C133.17 73.4077 129.762 72.2678 126.233 72H124.092C122.355 72.0917 120.659 72.5635 119.124 73.3823C117.842 74.0484 116.848 75.1604 116.33 76.5087C115.811 77.857 115.804 79.3485 116.308 80.702C118.33 86.5205 129.289 82.9523 132.638 86.0608C135.183 88.4171 132.811 91.5996 130.006 92.4162C127.058 93.2777 123.665 92.6187 120.84 91.5868C119.32 91.0306 118.568 90.4938 117.224 89.748C116.318 89.2433 115.376 91.8922 114.988 92.4837Z" fill="#F0F0E6"/>
<path fill-rule="evenodd" clip-rule="evenodd" d="M89.3352 92.4837C94.3358 96.4698 108.296 98.6718 111.298 90.9953C111.805 89.68 111.888 88.239 111.534 86.8744C111.181 85.5098 110.41 84.29 109.328 83.3862C107.4 81.8304 103.643 81.2324 101.229 81.2453C99.1051 81.2453 93.5388 81.6021 93.9694 78.1817C94.3326 75.2886 99.1115 75.1696 101.217 75.4236C105.317 75.9154 108.139 78.1496 108.669 78.2493L110.488 75.3111C107.524 73.3946 104.126 72.2559 100.606 72H98.6166C96.8223 72.0882 95.0683 72.563 93.4745 73.3919C92.1938 74.0585 91.1998 75.1691 90.6786 76.5158C90.1575 77.8625 90.1449 79.3531 90.6432 80.7084C92.7707 86.5527 103.604 82.9362 106.982 86.0608C110.247 89.0826 105.857 95.4893 95.1842 91.5868C93.6641 91.0306 92.9121 90.4938 91.5688 89.748C90.8392 89.343 90.6303 90.2559 90.3443 90.7445C90.0229 91.2878 89.6083 91.9307 89.3352 92.4837Z" fill="#F0F0E6"/>
<path fill-rule="evenodd" clip-rule="evenodd" d="M45.1779 82.1325V75.9636H54.8739C57.2713 75.9636 61.6646 75.4397 61.5617 79.04C61.4589 82.6404 57.5702 82.1325 54.9831 82.1325H45.1779ZM41.5495 95.4668H45.1072L45.1779 85.5465H55.0924C57.9462 85.5465 60.964 85.8679 63.2136 83.7559C64.1861 82.816 64.8526 81.6045 65.1261 80.2797C65.3996 78.955 65.2673 77.5785 64.7466 76.3301C63.5639 73.5237 61.1954 72.8615 58.4219 72.6429C55.5295 72.405 47.3247 72.5272 43.6385 72.5593C40.8104 72.5818 41.5399 72.4629 41.5431 75.5297C41.5581 82.1775 41.5603 88.8233 41.5495 95.4668Z" fill="#F0F0E6"/>
<path fill-rule="evenodd" clip-rule="evenodd" d="M186.115 95.4668H189.65V79.5994L203.791 95.4186L205.719 95.4604V72.6172L202.27 72.5561L202.197 88.52C197.774 83.9552 193.613 78.725 189.287 74.0091C188.644 73.2955 188.323 72.5626 187.359 72.5368C185.613 72.4886 186.137 73.0383 186.137 74.7517L186.115 95.4668Z" fill="#F0F0E6"/>
<path fill-rule="evenodd" clip-rule="evenodd" d="M259 72.6622H255.465C255.465 77.2463 255.439 81.84 255.465 86.4273C255.494 92.1526 253.286 92.8244 247.977 92.8116C242.61 92.8116 240.389 92.3679 240.383 86.5366C240.383 81.9118 240.383 77.287 240.383 72.6622C239.65 72.6622 238.911 72.6622 238.181 72.6622C237.166 72.6622 236.696 72.3408 236.732 73.5173C236.847 77.452 236.777 83.2255 236.732 87.1924C236.719 93.5863 239.769 95.9683 246.003 96.1098C250.567 96.2223 257.438 96.2641 258.743 90.6738C258.881 90.0173 258.967 89.3509 259 88.6807V72.6622V72.6622Z" fill="#F0F0E6"/>
<path fill-rule="evenodd" clip-rule="evenodd" d="M211.651 75.9636H224.892L210.366 95.4058L231.255 95.4668V92.1236L216.951 92.0529C217.439 91.021 219.715 88.3175 220.541 87.1634C221.694 85.5561 222.99 83.9263 224.188 82.3415C224.96 81.3096 231.378 73.0351 231.288 72.6654C230.754 72.4436 216.668 72.569 214.087 72.569C211.102 72.5497 211.651 71.9196 211.651 75.9636Z" fill="#F0F0E6"/>
<path fill-rule="evenodd" clip-rule="evenodd" d="M75.3874 78.0596L79.681 86.5141L71.158 86.5366L75.3874 78.0596ZM62.9115 95.4668H66.5527L69.5769 89.6033L81.1882 89.6291L84.2349 95.4668H88.0143C87.619 94.3481 79.1475 77.8378 77.6627 74.8739C76.9814 73.5044 77.02 72.5401 75.4645 72.5497C73.7805 72.5497 73.9701 73.2312 73.2149 74.726L68.7831 83.6016C67.88 85.4082 63.2007 94.3964 62.9115 95.4668Z" fill="#F0F0E6"/>
<path fill-rule="evenodd" clip-rule="evenodd" d="M192.729 111.048C193.388 110.91 194.365 110.084 195.695 109.997C197.026 109.91 198.546 109.997 199.873 109.997H258.781V107.682H206.593C204.077 107.682 200.419 107.464 198.038 107.827C196.601 108.046 193.208 109.65 192.729 111.048Z" fill="#F0F0E6"/>
<path fill-rule="evenodd" clip-rule="evenodd" d="M141.161 120.056C141.202 120.766 139.325 123.83 138.814 124.579C138.059 125.691 136.404 128.057 134.881 126.771C132.602 124.842 139.235 120.136 141.161 120.056ZM41 109.994H101.226C101.772 109.994 103.322 109.894 103.72 110.142C104.196 110.437 104.263 111.428 104.273 112.151C104.273 112.408 104.273 112.617 104.273 112.858C104.273 112.96 104.299 113.061 104.347 113.151C104.396 113.24 104.467 113.317 104.552 113.372C105.195 113.986 107.001 112.729 107.384 112.627C107.001 114.208 105.886 115.012 105.944 117.146C106.002 119.281 108.133 119.268 109.524 118.291C110.289 117.754 111.963 116.214 112.699 115.52C113.602 114.671 114.628 112.929 115.643 112.408C115.544 113.543 113.715 115.33 113.879 117.23C114.081 119.57 116.675 119.091 118.021 118.075C118.963 117.362 120.499 115.729 121.396 114.841C122.36 113.877 123.465 111.948 124.78 111.627C124.751 113.086 120.747 117.931 120.486 118.895C125.824 118.895 124.25 118.715 127.091 115.038C128.183 113.623 130.928 110.216 132.708 110.193C132.58 111.723 127.762 114.845 129.671 117.966C131.516 120.978 135.106 116.073 136.533 115.047C136.722 116.77 136.42 118.767 138.876 118.905C141.614 119.094 142.054 117.156 142.947 116.7C141.855 119.085 142.173 118.744 139.708 119.734C138.231 120.292 136.835 121.043 135.556 121.968C134.309 122.904 133.094 124.251 133.258 125.948C133.435 127.764 135.09 128.124 136.211 127.967C139.93 127.449 142.07 123.688 143.757 120.705C145.316 117.95 144.66 119.207 147.122 117.68C147.707 117.32 150.435 114.983 150.702 115.041C151.024 115.851 150.381 116.552 151.345 117.77C151.616 118.129 151.963 118.424 152.361 118.633C152.76 118.842 153.2 118.96 153.649 118.979C156.937 119.194 160.282 115.443 162.326 113.636C164.576 111.665 163.416 111.183 166.935 111.193C166.292 112.157 165.273 112.437 164.043 115.009C163.146 116.86 163.721 119.384 166.128 118.866C168.265 118.403 172.382 112.803 173.44 112.52C172.717 114.086 169.978 118.509 173.234 118.902C175.827 119.223 178.103 115.635 179.019 115.079C179.298 116.886 179.289 118.554 181.612 118.882C182.509 119.017 183.425 118.962 184.299 118.72C185.173 118.478 185.987 118.055 186.687 117.477C187.494 116.835 192.382 112.048 192.494 111.63C189.795 112.871 185.401 118.564 182.268 118.153C181.979 118.114 181.889 118.136 181.818 117.863C181.67 117.294 181.834 116.86 182.053 116.291C182.416 115.349 182.634 115.584 183.521 115.327C184.675 115.005 185.867 114.616 186.841 113.797C189.46 111.595 188.493 108.332 184.913 109.434C180.735 110.72 176.676 117.792 174.111 118.014C174.577 116.053 177.373 111.518 178.408 109.315C176.277 109.315 175.885 108.91 174.359 110.444C173.491 111.318 172.569 112.122 171.717 112.977C170.612 114.089 167.636 117.59 166.295 117.905C166.517 115.41 172.598 111.476 167.819 110.325C167.253 110.187 166.472 110.174 166.013 110.039C165.228 109.811 165.592 109.113 165.251 108.573C164.107 108.798 165.167 109.733 163.13 111.765C162.214 112.678 161.34 113.658 160.337 114.475C159.087 115.497 155.163 119.313 153.489 117.94C153.365 117.3 153.466 116.637 153.775 116.063C154.295 114.996 156.092 115.664 158.627 113.649C161.819 111.106 159.27 106.651 153.411 111.186C152.332 112.022 151.862 112.858 150.998 113.617C149.163 115.224 147.739 116.68 145.486 117.796L149.815 109.389C149.022 109.269 148.214 109.269 147.421 109.389C146.569 109.627 146.669 110.055 146.283 110.611C145.641 110.036 144.676 108.338 142.035 109.614C140.698 110.274 139.475 111.141 138.41 112.183C137.124 113.469 133.386 117.837 131.725 117.831C132.869 115.581 136.063 112.665 134.476 110.116C132.699 107.274 129.122 111.849 127.676 112.98C127.592 112.074 128.489 108.763 126.069 109.444C125.239 109.676 124.712 110.322 123.941 111.026C123.122 111.825 122.345 112.665 121.611 113.543C120.686 114.639 117.674 118.021 116.315 118.043C116.443 116.513 120.036 111.273 120.493 109.344C118.243 109.344 118.082 108.946 116.501 110.527C114.862 112.17 109.752 118.037 108.219 118.014C108.367 116.79 109.46 114.838 110.122 113.729C111.407 111.575 115.836 101.514 115.357 100.054C113.609 99.797 108.065 113.469 104.7 113.141C104.234 113.061 104.491 112.009 104.52 111.617C104.549 111.296 104.559 110.894 104.552 110.518C104.552 109.489 104.588 108.425 103.505 107.946C102.74 107.599 101.689 107.705 100.677 107.702H41V110.013V109.994ZM145.377 111.755C144.927 113.086 143.474 115.115 142.485 116.134C141.924 116.788 141.284 117.369 140.579 117.863C139.509 118.564 138.397 118.461 139.133 116.857C139.962 115.047 142.025 111.771 143.632 110.46C144.397 109.817 145.882 110.203 145.371 111.746L145.377 111.755ZM182.727 114.829C182.727 113.8 185.597 109.168 186.706 110.277C187.873 111.444 184.434 114.922 182.727 114.829ZM154.311 114.829C154.572 113.562 156.821 109.685 158.409 110.19C159.032 112.096 156.101 114.97 154.308 114.816L154.311 114.829Z" fill="#F0F0E6"/>
<path fill-rule="evenodd" clip-rule="evenodd" d="M143.616 95.4572H146.148L147.183 95.4315L147.257 94.3578L147.247 72.5497H143.606L143.616 95.4572Z" fill="#F0F0E6"/>
<path fill-rule="evenodd" clip-rule="evenodd" d="M178.077 104.709C174.735 105.725 176.268 108.116 177.756 107.705C178.572 107.48 179.52 107.21 179.707 106.22C179.915 105.111 179.044 104.413 178.077 104.709Z" fill="#F0F0E6"/>
<path fill-rule="evenodd" clip-rule="evenodd" d="M120.493 104.709C117.973 105.063 118.825 108.017 120.464 107.776C122.103 107.535 122.591 104.735 120.756 104.683C120.329 104.67 120.721 104.677 120.493 104.709Z" fill="#F0F0E6"/>
</svg>
