<svg width="300" height="200" viewBox="0 0 300 200" fill="none" xmlns="http://www.w3.org/2000/svg">
<g clip-path="url(#clip0)">
<rect width="300" height="200" fill="#F0F0E6"/>
<path d="M53.2048 76.0261C53.5486 76.0691 53.8957 75.9765 54.1713 75.7681C54.4468 75.5597 54.6289 75.2523 54.6781 74.9121C54.6781 74.8334 54.6781 73.8701 54.6781 73.8242C54.7244 73.49 55.101 73.372 55.3388 73.3458H57.8825C58.5504 73.3245 59.1997 73.5662 59.6886 74.018C60.1775 74.4698 60.4664 75.0951 60.4923 75.7574V87.678C60.9676 87.7928 61.4638 87.7928 61.9392 87.678V107.338L60.4923 107.849V123.243C60.4647 123.905 60.1753 124.529 59.6868 124.981C59.1982 125.432 58.5499 125.674 57.8825 125.655H37.0111C36.3448 125.673 35.6982 125.43 35.2111 124.978C34.724 124.527 34.4355 123.904 34.408 123.243V108.531L33.6812 108.262L32.9611 107.993V89.4147C33.413 89.186 33.9034 89.0416 34.408 88.9887V75.7574C34.4338 75.0963 34.7218 74.472 35.2093 74.0204C35.6968 73.5687 36.3444 73.3263 37.0111 73.3458H39.5614C39.7794 73.3458 40.156 73.49 40.2221 73.8242C40.2221 73.8242 40.2221 74.8334 40.2221 74.9121C40.2714 75.2523 40.4534 75.5597 40.729 75.7681C41.0046 75.9765 41.3517 76.0691 41.6955 76.0261H53.2048ZM57.5786 126.998C58.6885 127.03 59.7664 126.627 60.5788 125.877C61.3913 125.126 61.8729 124.088 61.9194 122.988V76.013C61.878 74.9132 61.3998 73.8743 60.589 73.1229C59.7783 72.3715 58.7009 71.9687 57.5918 72.0024H37.2886C36.1786 71.9652 35.0992 72.3669 34.2877 73.119C33.4761 73.8711 32.999 74.912 32.9611 76.013V122.988C33.0075 124.088 33.4891 125.126 34.3016 125.877C35.114 126.627 36.192 127.03 37.3018 126.998H57.5786Z" fill="url(#paint0_linear)"/>
<path d="M103.082 82.9898C102.522 82.3552 101.776 81.8418 100.842 81.4498C99.909 81.0578 98.845 80.8618 97.6503 80.8618C95.8957 80.8618 94.617 81.1978 93.8143 81.8698C93.0117 82.5232 92.6103 83.4192 92.6103 84.5578C92.6103 85.1552 92.713 85.6498 92.9183 86.0418C93.1423 86.4152 93.4783 86.7418 93.9263 87.0218C94.3743 87.3018 94.9437 87.5445 95.6343 87.7498C96.3437 87.9552 97.1743 88.1605 98.1263 88.3658C99.1903 88.5898 100.142 88.8418 100.982 89.1218C101.841 89.4018 102.569 89.7565 103.166 90.1858C103.764 90.5965 104.221 91.1005 104.538 91.6978C104.856 92.2952 105.014 93.0418 105.014 93.9378C105.014 94.8525 104.837 95.6458 104.482 96.3178C104.128 96.9898 103.633 97.5498 102.998 97.9978C102.364 98.4458 101.608 98.7818 100.73 99.0058C99.853 99.2112 98.8917 99.3138 97.8463 99.3138C94.7663 99.3138 92.1063 98.3525 89.8663 96.4298L90.8463 94.8338C91.201 95.2072 91.621 95.5618 92.1063 95.8978C92.6103 96.2338 93.161 96.5325 93.7583 96.7938C94.3743 97.0365 95.0277 97.2325 95.7183 97.3818C96.409 97.5125 97.137 97.5778 97.9023 97.5778C99.489 97.5778 100.721 97.2978 101.598 96.7378C102.494 96.1592 102.942 95.2912 102.942 94.1338C102.942 93.5178 102.812 93.0045 102.55 92.5938C102.308 92.1645 101.934 91.8005 101.43 91.5018C100.926 91.1845 100.301 90.9138 99.5543 90.6898C98.8077 90.4658 97.9397 90.2418 96.9503 90.0178C95.905 89.7752 94.9903 89.5232 94.2063 89.2618C93.4223 89.0005 92.7597 88.6738 92.2183 88.2818C91.677 87.8898 91.2663 87.4232 90.9863 86.8818C90.725 86.3218 90.5943 85.6405 90.5943 84.8378C90.5943 83.9232 90.7623 83.1112 91.0983 82.4018C91.453 81.6738 91.9477 81.0765 92.5823 80.6098C93.217 80.1245 93.9637 79.7605 94.8223 79.5178C95.681 79.2565 96.633 79.1258 97.6783 79.1258C99.0037 79.1258 100.18 79.3312 101.206 79.7418C102.252 80.1338 103.194 80.6938 104.034 81.4218L103.082 82.9898ZM114.378 99.4258C113.314 99.4258 112.334 99.2298 111.438 98.8378C110.561 98.4272 109.795 97.8765 109.142 97.1858C108.489 96.4765 107.975 95.6645 107.602 94.7498C107.247 93.8352 107.07 92.8552 107.07 91.8098C107.07 90.7832 107.247 89.8218 107.602 88.9258C107.975 88.0112 108.479 87.2178 109.114 86.5458C109.767 85.8552 110.542 85.3138 111.438 84.9218C112.334 84.5112 113.305 84.3058 114.35 84.3058C115.414 84.3058 116.385 84.5112 117.262 84.9218C118.158 85.3138 118.923 85.8552 119.558 86.5458C120.193 87.2365 120.687 88.0298 121.042 88.9258C121.397 89.8218 121.574 90.7738 121.574 91.7818C121.574 91.9312 121.574 92.0805 121.574 92.2298C121.574 92.3792 121.565 92.4818 121.546 92.5378H109.058C109.114 93.3218 109.291 94.0498 109.59 94.7218C109.907 95.3752 110.309 95.9445 110.794 96.4298C111.279 96.9152 111.83 97.2978 112.446 97.5778C113.081 97.8392 113.753 97.9698 114.462 97.9698C114.929 97.9698 115.395 97.9045 115.862 97.7738C116.329 97.6432 116.758 97.4658 117.15 97.2418C117.542 97.0178 117.897 96.7472 118.214 96.4298C118.531 96.0938 118.774 95.7298 118.942 95.3378L120.594 95.7858C120.37 96.3272 120.053 96.8218 119.642 97.2698C119.231 97.6992 118.755 98.0818 118.214 98.4178C117.673 98.7352 117.075 98.9778 116.422 99.1458C115.769 99.3325 115.087 99.4258 114.378 99.4258ZM119.754 91.0818C119.698 90.2978 119.511 89.5885 119.194 88.9538C118.895 88.3005 118.503 87.7405 118.018 87.2738C117.551 86.8072 117.001 86.4432 116.366 86.1818C115.75 85.9205 115.087 85.7898 114.378 85.7898C113.669 85.7898 112.997 85.9205 112.362 86.1818C111.727 86.4432 111.167 86.8072 110.682 87.2738C110.215 87.7405 109.833 88.3005 109.534 88.9538C109.254 89.6072 109.086 90.3165 109.03 91.0818H119.754ZM131.792 86.2378C130.504 86.2752 129.384 86.6298 128.432 87.3018C127.48 87.9738 126.808 88.8978 126.416 90.0738V99.1458H124.512V84.5578H126.304V88.0578C126.845 86.9378 127.573 86.0605 128.488 85.4258C129.402 84.7912 130.382 84.4738 131.428 84.4738C131.577 84.4738 131.698 84.4832 131.792 84.5018V86.2378ZM138.696 99.1458L132.76 84.5578H134.72L139.732 97.3818L144.772 84.5578H146.62L140.684 99.1458H138.696ZM149.258 99.1458V84.5578H151.162V99.1458H149.258ZM149.258 81.5058V78.7058H151.162V81.5058H149.258ZM154.347 91.8098C154.347 90.7832 154.525 89.8125 154.879 88.8978C155.234 87.9832 155.729 87.1898 156.363 86.5178C157.017 85.8272 157.791 85.2858 158.687 84.8938C159.583 84.5018 160.573 84.3058 161.655 84.3058C163.037 84.3058 164.241 84.6232 165.267 85.2578C166.294 85.8738 167.069 86.7138 167.591 87.7778L165.743 88.3658C165.333 87.6192 164.754 87.0405 164.007 86.6298C163.279 86.2005 162.467 85.9858 161.571 85.9858C160.825 85.9858 160.125 86.1352 159.471 86.4338C158.837 86.7325 158.277 87.1432 157.791 87.6658C157.325 88.1698 156.951 88.7765 156.671 89.4858C156.41 90.1952 156.279 90.9698 156.279 91.8098C156.279 92.6312 156.419 93.4058 156.699 94.1338C156.979 94.8618 157.362 95.4965 157.847 96.0378C158.333 96.5605 158.893 96.9805 159.527 97.2978C160.181 97.5965 160.871 97.7458 161.599 97.7458C162.066 97.7458 162.523 97.6805 162.971 97.5498C163.438 97.4192 163.867 97.2418 164.259 97.0178C164.651 96.7752 164.987 96.5045 165.267 96.2058C165.547 95.9072 165.743 95.5898 165.855 95.2538L167.731 95.8138C167.526 96.3365 167.227 96.8218 166.835 97.2698C166.443 97.6992 165.977 98.0818 165.435 98.4178C164.913 98.7352 164.325 98.9778 163.671 99.1458C163.037 99.3325 162.374 99.4258 161.683 99.4258C160.619 99.4258 159.639 99.2298 158.743 98.8378C157.847 98.4272 157.073 97.8765 156.419 97.1858C155.766 96.4765 155.253 95.6645 154.879 94.7498C154.525 93.8352 154.347 92.8552 154.347 91.8098ZM176.886 99.4258C175.822 99.4258 174.842 99.2298 173.946 98.8378C173.069 98.4272 172.303 97.8765 171.65 97.1858C170.997 96.4765 170.483 95.6645 170.11 94.7498C169.755 93.8352 169.578 92.8552 169.578 91.8098C169.578 90.7832 169.755 89.8218 170.11 88.9258C170.483 88.0112 170.987 87.2178 171.622 86.5458C172.275 85.8552 173.05 85.3138 173.946 84.9218C174.842 84.5112 175.813 84.3058 176.858 84.3058C177.922 84.3058 178.893 84.5112 179.77 84.9218C180.666 85.3138 181.431 85.8552 182.066 86.5458C182.701 87.2365 183.195 88.0298 183.55 88.9258C183.905 89.8218 184.082 90.7738 184.082 91.7818C184.082 91.9312 184.082 92.0805 184.082 92.2298C184.082 92.3792 184.073 92.4818 184.054 92.5378H171.566C171.622 93.3218 171.799 94.0498 172.098 94.7218C172.415 95.3752 172.817 95.9445 173.302 96.4298C173.787 96.9152 174.338 97.2978 174.954 97.5778C175.589 97.8392 176.261 97.9698 176.97 97.9698C177.437 97.9698 177.903 97.9045 178.37 97.7738C178.837 97.6432 179.266 97.4658 179.658 97.2418C180.05 97.0178 180.405 96.7472 180.722 96.4298C181.039 96.0938 181.282 95.7298 181.45 95.3378L183.102 95.7858C182.878 96.3272 182.561 96.8218 182.15 97.2698C181.739 97.6992 181.263 98.0818 180.722 98.4178C180.181 98.7352 179.583 98.9778 178.93 99.1458C178.277 99.3325 177.595 99.4258 176.886 99.4258ZM182.262 91.0818C182.206 90.2978 182.019 89.5885 181.702 88.9538C181.403 88.3005 181.011 87.7405 180.526 87.2738C180.059 86.8072 179.509 86.4432 178.874 86.1818C178.258 85.9205 177.595 85.7898 176.886 85.7898C176.177 85.7898 175.505 85.9205 174.87 86.1818C174.235 86.4432 173.675 86.8072 173.19 87.2738C172.723 87.7405 172.341 88.3005 172.042 88.9538C171.762 89.6072 171.594 90.3165 171.538 91.0818H182.262ZM194.156 99.1458V84.5578H196.06V99.1458H194.156ZM194.156 81.5058V78.7058H196.06V81.5058H194.156ZM200.646 99.1458V79.2658H208.878C209.737 79.2658 210.521 79.4525 211.23 79.8258C211.958 80.1805 212.583 80.6565 213.106 81.2538C213.629 81.8325 214.039 82.4952 214.338 83.2418C214.637 83.9885 214.786 84.7445 214.786 85.5098C214.786 86.3312 214.646 87.1245 214.366 87.8898C214.086 88.6365 213.694 89.2992 213.19 89.8778C212.686 90.4565 212.079 90.9232 211.37 91.2778C210.679 91.6325 209.905 91.8098 209.046 91.8098H202.606V99.1458H200.646ZM202.606 90.0738H208.962C209.541 90.0738 210.063 89.9525 210.53 89.7098C211.015 89.4485 211.426 89.1125 211.762 88.7018C212.098 88.2725 212.359 87.7872 212.546 87.2458C212.733 86.6858 212.826 86.1072 212.826 85.5098C212.826 84.8938 212.714 84.3152 212.49 83.7738C212.285 83.2138 211.995 82.7285 211.622 82.3178C211.267 81.9072 210.838 81.5898 210.334 81.3658C209.849 81.1232 209.335 81.0018 208.794 81.0018H202.606V90.0738ZM229.936 99.1458H228.032V90.9978C228.032 89.3365 227.743 88.0952 227.164 87.2738C226.604 86.4525 225.773 86.0418 224.672 86.0418C224.131 86.0418 223.589 86.1538 223.048 86.3778C222.525 86.5832 222.031 86.8725 221.564 87.2458C221.097 87.6192 220.687 88.0578 220.332 88.5618C219.996 89.0658 219.744 89.6165 219.576 90.2138V99.1458H217.672V78.7058H219.576V87.8618C220.155 86.7605 220.957 85.8925 221.984 85.2578C223.011 84.6232 224.121 84.3058 225.316 84.3058C226.156 84.3058 226.865 84.4645 227.444 84.7818C228.023 85.0805 228.499 85.5098 228.872 86.0698C229.245 86.6112 229.516 87.2738 229.684 88.0578C229.852 88.8232 229.936 89.6725 229.936 90.6058V99.1458ZM240.212 99.4258C239.148 99.4258 238.177 99.2298 237.3 98.8378C236.423 98.4272 235.657 97.8765 235.004 97.1858C234.369 96.4952 233.875 95.6925 233.52 94.7778C233.165 93.8632 232.988 92.9018 232.988 91.8938C232.988 90.8672 233.165 89.8965 233.52 88.9818C233.893 88.0672 234.397 87.2645 235.032 86.5738C235.685 85.8832 236.451 85.3325 237.328 84.9218C238.205 84.5112 239.167 84.3058 240.212 84.3058C241.257 84.3058 242.219 84.5112 243.096 84.9218C243.992 85.3325 244.757 85.8832 245.392 86.5738C246.045 87.2645 246.549 88.0672 246.904 88.9818C247.277 89.8965 247.464 90.8672 247.464 91.8938C247.464 92.9018 247.287 93.8632 246.932 94.7778C246.577 95.6925 246.073 96.4952 245.42 97.1858C244.785 97.8765 244.02 98.4272 243.124 98.8378C242.247 99.2298 241.276 99.4258 240.212 99.4258ZM234.92 91.9218C234.92 92.7432 235.06 93.5085 235.34 94.2178C235.62 94.9085 235.993 95.5245 236.46 96.0658C236.945 96.5885 237.505 96.9992 238.14 97.2978C238.793 97.5965 239.484 97.7458 240.212 97.7458C240.94 97.7458 241.621 97.5965 242.256 97.2978C242.909 96.9805 243.479 96.5605 243.964 96.0378C244.449 95.4965 244.832 94.8712 245.112 94.1618C245.392 93.4525 245.532 92.6872 245.532 91.8658C245.532 91.0632 245.392 90.3072 245.112 89.5978C244.832 88.8698 244.449 88.2445 243.964 87.7218C243.479 87.1805 242.909 86.7605 242.256 86.4618C241.621 86.1445 240.94 85.9858 240.212 85.9858C239.484 85.9858 238.803 86.1445 238.168 86.4618C237.533 86.7605 236.973 87.1805 236.488 87.7218C236.003 88.2632 235.62 88.8978 235.34 89.6258C235.06 90.3352 234.92 91.1005 234.92 91.9218ZM262.912 99.1458H261.008V90.9978C261.008 89.2618 260.747 88.0018 260.224 87.2178C259.72 86.4338 258.936 86.0418 257.872 86.0418C257.312 86.0418 256.752 86.1445 256.192 86.3498C255.632 86.5552 255.11 86.8445 254.624 87.2178C254.158 87.5912 253.738 88.0392 253.364 88.5618C252.991 89.0658 252.72 89.6165 252.552 90.2138V99.1458H250.648V84.5578H252.384V87.8618C252.982 86.7978 253.831 85.9392 254.932 85.2858C256.052 84.6325 257.266 84.3058 258.572 84.3058C259.375 84.3058 260.056 84.4552 260.616 84.7538C261.176 85.0525 261.624 85.4725 261.96 86.0138C262.296 86.5552 262.539 87.2178 262.688 88.0018C262.838 88.7858 262.912 89.6538 262.912 90.6058V99.1458ZM273.273 99.4258C272.209 99.4258 271.229 99.2298 270.333 98.8378C269.455 98.4272 268.69 97.8765 268.037 97.1858C267.383 96.4765 266.87 95.6645 266.497 94.7498C266.142 93.8352 265.965 92.8552 265.965 91.8098C265.965 90.7832 266.142 89.8218 266.497 88.9258C266.87 88.0112 267.374 87.2178 268.009 86.5458C268.662 85.8552 269.437 85.3138 270.333 84.9218C271.229 84.5112 272.199 84.3058 273.245 84.3058C274.309 84.3058 275.279 84.5112 276.157 84.9218C277.053 85.3138 277.818 85.8552 278.453 86.5458C279.087 87.2365 279.582 88.0298 279.937 88.9258C280.291 89.8218 280.469 90.7738 280.469 91.7818C280.469 91.9312 280.469 92.0805 280.469 92.2298C280.469 92.3792 280.459 92.4818 280.441 92.5378H267.953C268.009 93.3218 268.186 94.0498 268.485 94.7218C268.802 95.3752 269.203 95.9445 269.689 96.4298C270.174 96.9152 270.725 97.2978 271.341 97.5778C271.975 97.8392 272.647 97.9698 273.357 97.9698C273.823 97.9698 274.29 97.9045 274.757 97.7738C275.223 97.6432 275.653 97.4658 276.045 97.2418C276.437 97.0178 276.791 96.7472 277.109 96.4298C277.426 96.0938 277.669 95.7298 277.837 95.3378L279.489 95.7858C279.265 96.3272 278.947 96.8218 278.537 97.2698C278.126 97.6992 277.65 98.0818 277.109 98.4178C276.567 98.7352 275.97 98.9778 275.317 99.1458C274.663 99.3325 273.982 99.4258 273.273 99.4258ZM278.649 91.0818C278.593 90.2978 278.406 89.5885 278.089 88.9538C277.79 88.3005 277.398 87.7405 276.913 87.2738C276.446 86.8072 275.895 86.4432 275.261 86.1818C274.645 85.9205 273.982 85.7898 273.273 85.7898C272.563 85.7898 271.891 85.9205 271.257 86.1818C270.622 86.4432 270.062 86.8072 269.577 87.2738C269.11 87.7405 268.727 88.3005 268.429 88.9538C268.149 89.6072 267.981 90.3165 267.925 91.0818H278.649Z" fill="#1F82C4"/>
<path d="M37.7247 89.4147C42.7526 88.045 48.6196 87.8681 54.7839 88.7986C57.8446 89.2725 60.9557 89.3364 64.0336 88.9887C68.2885 88.4972 73.2833 87.18 74.1422 86.3673C73.962 86.9839 73.6486 87.5541 73.2239 88.0385C72.4233 89.1752 71.4176 90.155 70.2574 90.9285C68.2387 92.4005 65.9494 93.4669 63.5183 94.0676C65.2517 94.0607 66.9787 93.8562 68.6651 93.4581C70.2714 92.9586 71.8355 92.3341 73.3428 91.5904C73.1014 92.3945 72.6866 93.1368 72.1271 93.7661C70.8116 95.0183 69.3206 96.0756 67.7005 96.9052C65.8564 97.7432 63.9145 98.3508 61.9194 98.7139C60.0539 99.0934 58.1677 99.3648 56.2704 99.5265C60.041 100.339 63.9213 100.525 67.7533 100.077C63.5116 103.279 56.6382 104.601 47.133 104.042C51.4011 105.733 56.8386 106.29 63.2936 105.503C49.3661 110.641 39.9314 110.608 29.4462 104.848C21.9208 100.451 27.6425 91.5576 37.7247 89.4147Z" fill="url(#paint1_linear)"/>
<path d="M142.924 119.104C143.375 119.104 143.769 118.968 144.106 118.694C144.444 118.421 144.631 118.079 144.667 117.669H145.863C145.84 118.093 145.695 118.496 145.426 118.879C145.157 119.262 144.797 119.567 144.346 119.795C143.899 120.023 143.425 120.137 142.924 120.137C141.917 120.137 141.115 119.802 140.518 119.132C139.925 118.457 139.629 117.537 139.629 116.37V116.158C139.629 115.438 139.761 114.798 140.025 114.237C140.29 113.677 140.668 113.242 141.16 112.932C141.657 112.622 142.243 112.467 142.917 112.467C143.746 112.467 144.435 112.715 144.981 113.212C145.533 113.709 145.827 114.354 145.863 115.146H144.667C144.631 114.668 144.448 114.276 144.12 113.971C143.797 113.661 143.396 113.506 142.917 113.506C142.274 113.506 141.775 113.738 141.42 114.203C141.069 114.663 140.894 115.331 140.894 116.206V116.445C140.894 117.298 141.069 117.954 141.42 118.414C141.771 118.874 142.272 119.104 142.924 119.104ZM150.354 120.137C149.352 120.137 148.536 119.809 147.907 119.152C147.278 118.492 146.964 117.61 146.964 116.507V116.274C146.964 115.541 147.103 114.887 147.381 114.312C147.663 113.734 148.055 113.283 148.557 112.959C149.062 112.631 149.609 112.467 150.197 112.467C151.159 112.467 151.906 112.784 152.439 113.417C152.973 114.05 153.239 114.957 153.239 116.138V116.664H148.229C148.247 117.393 148.459 117.983 148.864 118.435C149.274 118.881 149.794 119.104 150.423 119.104C150.869 119.104 151.248 119.013 151.558 118.831C151.868 118.649 152.139 118.407 152.371 118.106L153.144 118.708C152.524 119.66 151.594 120.137 150.354 120.137ZM150.197 113.506C149.687 113.506 149.258 113.693 148.912 114.066C148.566 114.436 148.352 114.955 148.27 115.625H151.975V115.529C151.938 114.887 151.765 114.39 151.455 114.039C151.145 113.684 150.726 113.506 150.197 113.506ZM160.123 113.629H157.642V120H156.377V113.629H153.943V112.604H160.123V113.629ZM162.734 115.153H164.655C165.494 115.162 166.157 115.381 166.645 115.81C167.132 116.238 167.376 116.819 167.376 117.553C167.376 118.291 167.125 118.883 166.624 119.33C166.123 119.777 165.448 120 164.601 120H161.47V112.604H162.734V115.153ZM162.734 116.186V118.968H164.614C165.088 118.968 165.455 118.847 165.715 118.605C165.975 118.359 166.104 118.024 166.104 117.601C166.104 117.19 165.977 116.855 165.722 116.596C165.471 116.331 165.118 116.195 164.662 116.186H162.734ZM175.395 119.104C175.846 119.104 176.24 118.968 176.577 118.694C176.914 118.421 177.101 118.079 177.138 117.669H178.334C178.311 118.093 178.165 118.496 177.896 118.879C177.628 119.262 177.268 119.567 176.816 119.795C176.37 120.023 175.896 120.137 175.395 120.137C174.387 120.137 173.585 119.802 172.988 119.132C172.396 118.457 172.1 117.537 172.1 116.37V116.158C172.1 115.438 172.232 114.798 172.496 114.237C172.76 113.677 173.139 113.242 173.631 112.932C174.128 112.622 174.713 112.467 175.388 112.467C176.217 112.467 176.905 112.715 177.452 113.212C178.004 113.709 178.298 114.354 178.334 115.146H177.138C177.101 114.668 176.919 114.276 176.591 113.971C176.267 113.661 175.866 113.506 175.388 113.506C174.745 113.506 174.246 113.738 173.891 114.203C173.54 114.663 173.364 115.331 173.364 116.206V116.445C173.364 117.298 173.54 117.954 173.891 118.414C174.242 118.874 174.743 119.104 175.395 119.104ZM182.825 120.137C181.823 120.137 181.007 119.809 180.378 119.152C179.749 118.492 179.435 117.61 179.435 116.507V116.274C179.435 115.541 179.574 114.887 179.852 114.312C180.134 113.734 180.526 113.283 181.027 112.959C181.533 112.631 182.08 112.467 182.668 112.467C183.63 112.467 184.377 112.784 184.91 113.417C185.443 114.05 185.71 114.957 185.71 116.138V116.664H180.699C180.717 117.393 180.929 117.983 181.335 118.435C181.745 118.881 182.265 119.104 182.894 119.104C183.34 119.104 183.718 119.013 184.028 118.831C184.338 118.649 184.609 118.407 184.842 118.106L185.614 118.708C184.994 119.66 184.065 120.137 182.825 120.137ZM182.668 113.506C182.158 113.506 181.729 113.693 181.383 114.066C181.036 114.436 180.822 114.955 180.74 115.625H184.445V115.529C184.409 114.887 184.236 114.39 183.926 114.039C183.616 113.684 183.197 113.506 182.668 113.506ZM193.428 116.384C193.428 117.509 193.17 118.416 192.655 119.104C192.14 119.793 191.443 120.137 190.563 120.137C189.666 120.137 188.959 119.852 188.444 119.282V122.844H187.18V112.604H188.335L188.396 113.424C188.911 112.786 189.627 112.467 190.543 112.467C191.432 112.467 192.133 112.802 192.648 113.472C193.168 114.142 193.428 115.074 193.428 116.268V116.384ZM192.163 116.24C192.163 115.406 191.985 114.748 191.63 114.265C191.274 113.782 190.787 113.54 190.167 113.54C189.401 113.54 188.827 113.88 188.444 114.559V118.093C188.823 118.767 189.401 119.104 190.181 119.104C190.787 119.104 191.268 118.865 191.623 118.387C191.983 117.904 192.163 117.188 192.163 116.24ZM195.157 120V112.604H198.042C199.026 112.604 199.781 112.777 200.305 113.123C200.833 113.465 201.098 113.968 201.098 114.634C201.098 114.976 200.995 115.285 200.79 115.563C200.585 115.837 200.282 116.047 199.881 116.192C200.327 116.297 200.685 116.502 200.954 116.808C201.228 117.113 201.364 117.478 201.364 117.901C201.364 118.58 201.114 119.1 200.612 119.46C200.116 119.82 199.411 120 198.5 120H195.157ZM196.422 116.753V118.981H198.514C199.042 118.981 199.437 118.883 199.696 118.688C199.961 118.492 200.093 118.216 200.093 117.86C200.093 117.122 199.55 116.753 198.466 116.753H196.422ZM196.422 115.741H198.056C199.241 115.741 199.833 115.395 199.833 114.702C199.833 114.009 199.272 113.652 198.151 113.629H196.422V115.741ZM207.824 112.604H209.089V120H207.824V114.606L204.413 120H203.148V112.604H204.413V118.004L207.824 112.604ZM214.086 119.104C214.537 119.104 214.931 118.968 215.269 118.694C215.606 118.421 215.793 118.079 215.829 117.669H217.025C217.003 118.093 216.857 118.496 216.588 118.879C216.319 119.262 215.959 119.567 215.508 119.795C215.061 120.023 214.587 120.137 214.086 120.137C213.079 120.137 212.277 119.802 211.68 119.132C211.087 118.457 210.791 117.537 210.791 116.37V116.158C210.791 115.438 210.923 114.798 211.188 114.237C211.452 113.677 211.83 113.242 212.322 112.932C212.819 112.622 213.405 112.467 214.079 112.467C214.909 112.467 215.597 112.715 216.144 113.212C216.695 113.709 216.989 114.354 217.025 115.146H215.829C215.793 114.668 215.61 114.276 215.282 113.971C214.959 113.661 214.558 113.506 214.079 113.506C213.437 113.506 212.938 113.738 212.582 114.203C212.231 114.663 212.056 115.331 212.056 116.206V116.445C212.056 117.298 212.231 117.954 212.582 118.414C212.933 118.874 213.434 119.104 214.086 119.104ZM222.029 112.604H223.301V118.968H226.705V112.604H227.97V118.968H228.852L228.729 122.194H227.594V120H222.029V112.604ZM233.288 120.137C232.285 120.137 231.47 119.809 230.841 119.152C230.212 118.492 229.897 117.61 229.897 116.507V116.274C229.897 115.541 230.036 114.887 230.314 114.312C230.597 113.734 230.989 113.283 231.49 112.959C231.996 112.631 232.543 112.467 233.131 112.467C234.092 112.467 234.84 112.784 235.373 113.417C235.906 114.05 236.173 114.957 236.173 116.138V116.664H231.162C231.18 117.393 231.392 117.983 231.798 118.435C232.208 118.881 232.728 119.104 233.356 119.104C233.803 119.104 234.181 119.013 234.491 118.831C234.801 118.649 235.072 118.407 235.305 118.106L236.077 118.708C235.457 119.66 234.528 120.137 233.288 120.137ZM233.131 113.506C232.62 113.506 232.192 113.693 231.846 114.066C231.499 114.436 231.285 114.955 231.203 115.625H234.908V115.529C234.872 114.887 234.699 114.39 234.389 114.039C234.079 113.684 233.66 113.506 233.131 113.506ZM243.686 120H242.421V116.842H239.023V120H237.752V112.604H239.023V115.81H242.421V112.604H243.686V120ZM251.219 113.629H248.737V120H247.473V113.629H245.039V112.604H251.219V113.629ZM258.697 116.384C258.697 117.509 258.44 118.416 257.925 119.104C257.41 119.793 256.713 120.137 255.833 120.137C254.935 120.137 254.229 119.852 253.714 119.282V122.844H252.449V112.604H253.604L253.666 113.424C254.181 112.786 254.896 112.467 255.812 112.467C256.701 112.467 257.403 112.802 257.918 113.472C258.438 114.142 258.697 115.074 258.697 116.268V116.384ZM257.433 116.24C257.433 115.406 257.255 114.748 256.899 114.265C256.544 113.782 256.056 113.54 255.437 113.54C254.671 113.54 254.097 113.88 253.714 114.559V118.093C254.092 118.767 254.671 119.104 255.45 119.104C256.056 119.104 256.537 118.865 256.893 118.387C257.253 117.904 257.433 117.188 257.433 116.24ZM259.976 116.233C259.976 115.509 260.117 114.857 260.399 114.278C260.687 113.7 261.083 113.253 261.589 112.938C262.099 112.624 262.68 112.467 263.332 112.467C264.339 112.467 265.153 112.815 265.772 113.513C266.397 114.21 266.709 115.137 266.709 116.295V116.384C266.709 117.104 266.57 117.751 266.292 118.325C266.019 118.895 265.624 119.339 265.109 119.658C264.599 119.977 264.011 120.137 263.346 120.137C262.343 120.137 261.53 119.788 260.905 119.091C260.285 118.394 259.976 117.471 259.976 116.322V116.233ZM261.247 116.384C261.247 117.204 261.436 117.863 261.814 118.359C262.197 118.856 262.708 119.104 263.346 119.104C263.988 119.104 264.499 118.854 264.877 118.353C265.255 117.847 265.444 117.14 265.444 116.233C265.444 115.422 265.251 114.766 264.863 114.265C264.48 113.759 263.97 113.506 263.332 113.506C262.708 113.506 262.204 113.754 261.821 114.251C261.438 114.748 261.247 115.459 261.247 116.384ZM268.411 120V112.604H271.296C272.28 112.604 273.035 112.777 273.559 113.123C274.087 113.465 274.352 113.968 274.352 114.634C274.352 114.976 274.249 115.285 274.044 115.563C273.839 115.837 273.536 116.047 273.135 116.192C273.581 116.297 273.939 116.502 274.208 116.808C274.481 117.113 274.618 117.478 274.618 117.901C274.618 118.58 274.368 119.1 273.866 119.46C273.369 119.82 272.665 120 271.754 120H268.411ZM269.676 116.753V118.981H271.768C272.296 118.981 272.69 118.883 272.95 118.688C273.215 118.492 273.347 118.216 273.347 117.86C273.347 117.122 272.804 116.753 271.72 116.753H269.676ZM269.676 115.741H271.31C272.494 115.741 273.087 115.395 273.087 114.702C273.087 114.009 272.526 113.652 271.405 113.629H269.676V115.741Z" fill="#2C2C2C"/>
<path d="M142.924 119.104C143.375 119.104 143.769 118.968 144.106 118.694C144.444 118.421 144.631 118.079 144.667 117.669H145.863C145.84 118.093 145.695 118.496 145.426 118.879C145.157 119.262 144.797 119.567 144.346 119.795C143.899 120.023 143.425 120.137 142.924 120.137C141.917 120.137 141.115 119.802 140.518 119.132C139.925 118.457 139.629 117.537 139.629 116.37V116.158C139.629 115.438 139.761 114.798 140.025 114.237C140.29 113.677 140.668 113.242 141.16 112.932C141.657 112.622 142.243 112.467 142.917 112.467C143.746 112.467 144.435 112.715 144.981 113.212C145.533 113.709 145.827 114.354 145.863 115.146H144.667C144.631 114.668 144.448 114.276 144.12 113.971C143.797 113.661 143.396 113.506 142.917 113.506C142.274 113.506 141.775 113.738 141.42 114.203C141.069 114.663 140.894 115.331 140.894 116.206V116.445C140.894 117.298 141.069 117.954 141.42 118.414C141.771 118.874 142.272 119.104 142.924 119.104ZM150.354 120.137C149.352 120.137 148.536 119.809 147.907 119.152C147.278 118.492 146.964 117.61 146.964 116.507V116.274C146.964 115.541 147.103 114.887 147.381 114.312C147.663 113.734 148.055 113.283 148.557 112.959C149.062 112.631 149.609 112.467 150.197 112.467C151.159 112.467 151.906 112.784 152.439 113.417C152.973 114.05 153.239 114.957 153.239 116.138V116.664H148.229C148.247 117.393 148.459 117.983 148.864 118.435C149.274 118.881 149.794 119.104 150.423 119.104C150.869 119.104 151.248 119.013 151.558 118.831C151.868 118.649 152.139 118.407 152.371 118.106L153.144 118.708C152.524 119.66 151.594 120.137 150.354 120.137ZM150.197 113.506C149.687 113.506 149.258 113.693 148.912 114.066C148.566 114.436 148.352 114.955 148.27 115.625H151.975V115.529C151.938 114.887 151.765 114.39 151.455 114.039C151.145 113.684 150.726 113.506 150.197 113.506ZM160.123 113.629H157.642V120H156.377V113.629H153.943V112.604H160.123V113.629ZM162.734 115.153H164.655C165.494 115.162 166.157 115.381 166.645 115.81C167.132 116.238 167.376 116.819 167.376 117.553C167.376 118.291 167.125 118.883 166.624 119.33C166.123 119.777 165.448 120 164.601 120H161.47V112.604H162.734V115.153ZM162.734 116.186V118.968H164.614C165.088 118.968 165.455 118.847 165.715 118.605C165.975 118.359 166.104 118.024 166.104 117.601C166.104 117.19 165.977 116.855 165.722 116.596C165.471 116.331 165.118 116.195 164.662 116.186H162.734ZM175.395 119.104C175.846 119.104 176.24 118.968 176.577 118.694C176.914 118.421 177.101 118.079 177.138 117.669H178.334C178.311 118.093 178.165 118.496 177.896 118.879C177.628 119.262 177.268 119.567 176.816 119.795C176.37 120.023 175.896 120.137 175.395 120.137C174.387 120.137 173.585 119.802 172.988 119.132C172.396 118.457 172.1 117.537 172.1 116.37V116.158C172.1 115.438 172.232 114.798 172.496 114.237C172.76 113.677 173.139 113.242 173.631 112.932C174.128 112.622 174.713 112.467 175.388 112.467C176.217 112.467 176.905 112.715 177.452 113.212C178.004 113.709 178.298 114.354 178.334 115.146H177.138C177.101 114.668 176.919 114.276 176.591 113.971C176.267 113.661 175.866 113.506 175.388 113.506C174.745 113.506 174.246 113.738 173.891 114.203C173.54 114.663 173.364 115.331 173.364 116.206V116.445C173.364 117.298 173.54 117.954 173.891 118.414C174.242 118.874 174.743 119.104 175.395 119.104ZM182.825 120.137C181.823 120.137 181.007 119.809 180.378 119.152C179.749 118.492 179.435 117.61 179.435 116.507V116.274C179.435 115.541 179.574 114.887 179.852 114.312C180.134 113.734 180.526 113.283 181.027 112.959C181.533 112.631 182.08 112.467 182.668 112.467C183.63 112.467 184.377 112.784 184.91 113.417C185.443 114.05 185.71 114.957 185.71 116.138V116.664H180.699C180.717 117.393 180.929 117.983 181.335 118.435C181.745 118.881 182.265 119.104 182.894 119.104C183.34 119.104 183.718 119.013 184.028 118.831C184.338 118.649 184.609 118.407 184.842 118.106L185.614 118.708C184.994 119.66 184.065 120.137 182.825 120.137ZM182.668 113.506C182.158 113.506 181.729 113.693 181.383 114.066C181.036 114.436 180.822 114.955 180.74 115.625H184.445V115.529C184.409 114.887 184.236 114.39 183.926 114.039C183.616 113.684 183.197 113.506 182.668 113.506ZM193.428 116.384C193.428 117.509 193.17 118.416 192.655 119.104C192.14 119.793 191.443 120.137 190.563 120.137C189.666 120.137 188.959 119.852 188.444 119.282V122.844H187.18V112.604H188.335L188.396 113.424C188.911 112.786 189.627 112.467 190.543 112.467C191.432 112.467 192.133 112.802 192.648 113.472C193.168 114.142 193.428 115.074 193.428 116.268V116.384ZM192.163 116.24C192.163 115.406 191.985 114.748 191.63 114.265C191.274 113.782 190.787 113.54 190.167 113.54C189.401 113.54 188.827 113.88 188.444 114.559V118.093C188.823 118.767 189.401 119.104 190.181 119.104C190.787 119.104 191.268 118.865 191.623 118.387C191.983 117.904 192.163 117.188 192.163 116.24ZM195.157 120V112.604H198.042C199.026 112.604 199.781 112.777 200.305 113.123C200.833 113.465 201.098 113.968 201.098 114.634C201.098 114.976 200.995 115.285 200.79 115.563C200.585 115.837 200.282 116.047 199.881 116.192C200.327 116.297 200.685 116.502 200.954 116.808C201.228 117.113 201.364 117.478 201.364 117.901C201.364 118.58 201.114 119.1 200.612 119.46C200.116 119.82 199.411 120 198.5 120H195.157ZM196.422 116.753V118.981H198.514C199.042 118.981 199.437 118.883 199.696 118.688C199.961 118.492 200.093 118.216 200.093 117.86C200.093 117.122 199.55 116.753 198.466 116.753H196.422ZM196.422 115.741H198.056C199.241 115.741 199.833 115.395 199.833 114.702C199.833 114.009 199.272 113.652 198.151 113.629H196.422V115.741ZM207.824 112.604H209.089V120H207.824V114.606L204.413 120H203.148V112.604H204.413V118.004L207.824 112.604ZM214.086 119.104C214.537 119.104 214.931 118.968 215.269 118.694C215.606 118.421 215.793 118.079 215.829 117.669H217.025C217.003 118.093 216.857 118.496 216.588 118.879C216.319 119.262 215.959 119.567 215.508 119.795C215.061 120.023 214.587 120.137 214.086 120.137C213.079 120.137 212.277 119.802 211.68 119.132C211.087 118.457 210.791 117.537 210.791 116.37V116.158C210.791 115.438 210.923 114.798 211.188 114.237C211.452 113.677 211.83 113.242 212.322 112.932C212.819 112.622 213.405 112.467 214.079 112.467C214.909 112.467 215.597 112.715 216.144 113.212C216.695 113.709 216.989 114.354 217.025 115.146H215.829C215.793 114.668 215.61 114.276 215.282 113.971C214.959 113.661 214.558 113.506 214.079 113.506C213.437 113.506 212.938 113.738 212.582 114.203C212.231 114.663 212.056 115.331 212.056 116.206V116.445C212.056 117.298 212.231 117.954 212.582 118.414C212.933 118.874 213.434 119.104 214.086 119.104ZM222.029 112.604H223.301V118.968H226.705V112.604H227.97V118.968H228.852L228.729 122.194H227.594V120H222.029V112.604ZM233.288 120.137C232.285 120.137 231.47 119.809 230.841 119.152C230.212 118.492 229.897 117.61 229.897 116.507V116.274C229.897 115.541 230.036 114.887 230.314 114.312C230.597 113.734 230.989 113.283 231.49 112.959C231.996 112.631 232.543 112.467 233.131 112.467C234.092 112.467 234.84 112.784 235.373 113.417C235.906 114.05 236.173 114.957 236.173 116.138V116.664H231.162C231.18 117.393 231.392 117.983 231.798 118.435C232.208 118.881 232.728 119.104 233.356 119.104C233.803 119.104 234.181 119.013 234.491 118.831C234.801 118.649 235.072 118.407 235.305 118.106L236.077 118.708C235.457 119.66 234.528 120.137 233.288 120.137ZM233.131 113.506C232.62 113.506 232.192 113.693 231.846 114.066C231.499 114.436 231.285 114.955 231.203 115.625H234.908V115.529C234.872 114.887 234.699 114.39 234.389 114.039C234.079 113.684 233.66 113.506 233.131 113.506ZM243.686 120H242.421V116.842H239.023V120H237.752V112.604H239.023V115.81H242.421V112.604H243.686V120ZM251.219 113.629H248.737V120H247.473V113.629H245.039V112.604H251.219V113.629ZM258.697 116.384C258.697 117.509 258.44 118.416 257.925 119.104C257.41 119.793 256.713 120.137 255.833 120.137C254.935 120.137 254.229 119.852 253.714 119.282V122.844H252.449V112.604H253.604L253.666 113.424C254.181 112.786 254.896 112.467 255.812 112.467C256.701 112.467 257.403 112.802 257.918 113.472C258.438 114.142 258.697 115.074 258.697 116.268V116.384ZM257.433 116.24C257.433 115.406 257.255 114.748 256.899 114.265C256.544 113.782 256.056 113.54 255.437 113.54C254.671 113.54 254.097 113.88 253.714 114.559V118.093C254.092 118.767 254.671 119.104 255.45 119.104C256.056 119.104 256.537 118.865 256.893 118.387C257.253 117.904 257.433 117.188 257.433 116.24ZM259.976 116.233C259.976 115.509 260.117 114.857 260.399 114.278C260.687 113.7 261.083 113.253 261.589 112.938C262.099 112.624 262.68 112.467 263.332 112.467C264.339 112.467 265.153 112.815 265.772 113.513C266.397 114.21 266.709 115.137 266.709 116.295V116.384C266.709 117.104 266.57 117.751 266.292 118.325C266.019 118.895 265.624 119.339 265.109 119.658C264.599 119.977 264.011 120.137 263.346 120.137C262.343 120.137 261.53 119.788 260.905 119.091C260.285 118.394 259.976 117.471 259.976 116.322V116.233ZM261.247 116.384C261.247 117.204 261.436 117.863 261.814 118.359C262.197 118.856 262.708 119.104 263.346 119.104C263.988 119.104 264.499 118.854 264.877 118.353C265.255 117.847 265.444 117.14 265.444 116.233C265.444 115.422 265.251 114.766 264.863 114.265C264.48 113.759 263.97 113.506 263.332 113.506C262.708 113.506 262.204 113.754 261.821 114.251C261.438 114.748 261.247 115.459 261.247 116.384ZM268.411 120V112.604H271.296C272.28 112.604 273.035 112.777 273.559 113.123C274.087 113.465 274.352 113.968 274.352 114.634C274.352 114.976 274.249 115.285 274.044 115.563C273.839 115.837 273.536 116.047 273.135 116.192C273.581 116.297 273.939 116.502 274.208 116.808C274.481 117.113 274.618 117.478 274.618 117.901C274.618 118.58 274.368 119.1 273.866 119.46C273.369 119.82 272.665 120 271.754 120H268.411ZM269.676 116.753V118.981H271.768C272.296 118.981 272.69 118.883 272.95 118.688C273.215 118.492 273.347 118.216 273.347 117.86C273.347 117.122 272.804 116.753 271.72 116.753H269.676ZM269.676 115.741H271.31C272.494 115.741 273.087 115.395 273.087 114.702C273.087 114.009 272.526 113.652 271.405 113.629H269.676V115.741Z" fill="url(#paint2_linear)"/>
</g>
<defs>
<linearGradient id="paint0_linear" x1="32.8205" y1="99.3186" x2="61.7788" y2="99.3186" gradientUnits="userSpaceOnUse">
<stop stop-color="#117BC1"/>
<stop offset="0.99" stop-color="#11517B"/>
<stop offset="1" stop-color="#11517B"/>
</linearGradient>
<linearGradient id="paint1_linear" x1="26.2395" y1="96.4877" x2="62.5711" y2="102.44" gradientUnits="userSpaceOnUse">
<stop stop-color="#A7CCE1"/>
<stop offset="0.02" stop-color="#A7CCE1"/>
<stop offset="0.99" stop-color="#117BC1"/>
<stop offset="1" stop-color="#117BC1"/>
</linearGradient>
<linearGradient id="paint2_linear" x1="222.908" y1="107" x2="231.538" y2="144.364" gradientUnits="userSpaceOnUse">
<stop stop-color="#117BC1"/>
<stop offset="1" stop-color="#9FC8DF"/>
</linearGradient>
<clipPath id="clip0">
<rect width="300" height="200" fill="white"/>
</clipPath>
</defs>
</svg>
